<svg width="368" height="226" viewBox="0 0 368 226" fill="none" xmlns="http://www.w3.org/2000/svg">
<circle cx="191.48" cy="97.3139" r="71.103" fill="#F0F0F0"/>
<path d="M202.527 80.5391L269.218 99.3598L262.262 173.415L182.479 153.367L202.527 80.5391Z" fill="#D2D2D2"/>
<path d="M268.808 98.9497L198.844 80.9473C195.434 85.857 186.651 98.5406 178.796 109.997C170.94 121.453 157.247 135.5 151.383 141.092L233.212 165.231C234.712 164.413 241.068 158.44 254.488 141.092C267.908 123.744 269.626 105.769 268.808 98.9497Z" fill="#F3F3F3" stroke="#CCCCCC" stroke-width="0.818293"/>
<circle cx="204.982" cy="100.177" r="3.27317" fill="#C4C4C4"/>
<circle cx="195.162" cy="117.363" r="3.27317" fill="#C4C4C4"/>
<circle cx="185.343" cy="132.91" r="3.27317" fill="#C4C4C4"/>
<circle cx="139.219" cy="63.0186" r="29.8586" transform="rotate(25.8347 139.219 63.0186)" fill="#F0F0F0" stroke="#D2D2D2" stroke-width="0.818293"/>
<rect width="16.3659" height="2.45488" transform="matrix(1 0 0 -1 129.809 71.6113)" fill="#C4C4C4"/>
<circle cx="122.034" cy="58.108" r="4.50061" fill="#C4C4C4"/>
<circle cx="153.946" cy="58.108" r="4.50061" fill="#C4C4C4"/>
<rect x="203.525" y="120.188" width="39.2781" height="1.63659" rx="0.818293" transform="rotate(15.5 203.525 120.188)" fill="#C4C4C4"/>
<rect x="194.957" y="136.77" width="35.5522" height="1.63659" rx="0.818293" transform="rotate(15.5 194.957 136.77)" fill="#C4C4C4"/>
<rect x="214.309" y="102.67" width="39.2781" height="1.63659" rx="0.818293" transform="rotate(14.5 214.309 102.67)" fill="#C4C4C4"/>
<path d="M9.48844 209.856V220H11.0084V209.856H14.8164V208.576H5.68044V209.856H9.48844ZM15.4599 208.576V220H16.8199V215.328C16.8199 214.955 16.8679 214.613 16.9639 214.304C17.0706 213.984 17.2253 213.707 17.4279 213.472C17.6306 213.237 17.8813 213.056 18.1799 212.928C18.4893 212.8 18.8519 212.736 19.2679 212.736C19.7906 212.736 20.2013 212.885 20.4999 213.184C20.7986 213.483 20.9479 213.888 20.9479 214.4V220H22.3079V214.56C22.3079 214.112 22.2599 213.707 22.1639 213.344C22.0786 212.971 21.9239 212.651 21.6999 212.384C21.4759 212.117 21.1826 211.909 20.8199 211.76C20.4573 211.611 20.0039 211.536 19.4599 211.536C19.2146 211.536 18.9586 211.563 18.6919 211.616C18.4359 211.669 18.1853 211.755 17.9399 211.872C17.7053 211.979 17.4919 212.123 17.2999 212.304C17.1079 212.475 16.9586 212.688 16.8519 212.944H16.8199V208.576H15.4599ZM29.6946 215.072H24.9426C24.9639 214.752 25.0332 214.453 25.1506 214.176C25.2679 213.888 25.4279 213.637 25.6306 213.424C25.8332 213.211 26.0732 213.045 26.3506 212.928C26.6386 212.8 26.9586 212.736 27.3106 212.736C27.6519 212.736 27.9612 212.8 28.2386 212.928C28.5266 213.045 28.7719 213.211 28.9746 213.424C29.1879 213.627 29.3532 213.872 29.4706 214.16C29.5986 214.448 29.6732 214.752 29.6946 215.072ZM31.0066 217.376H29.6626C29.5452 217.92 29.2999 218.325 28.9266 218.592C28.5639 218.859 28.0946 218.992 27.5186 218.992C27.0706 218.992 26.6812 218.917 26.3506 218.768C26.0199 218.619 25.7479 218.421 25.5346 218.176C25.3212 217.92 25.1666 217.632 25.0706 217.312C24.9746 216.981 24.9319 216.635 24.9426 216.272H31.1346C31.1559 215.771 31.1079 215.243 30.9906 214.688C30.8839 214.133 30.6812 213.621 30.3826 213.152C30.0946 212.683 29.7052 212.299 29.2146 212C28.7346 211.691 28.1266 211.536 27.3906 211.536C26.8252 211.536 26.3026 211.643 25.8226 211.856C25.3532 212.069 24.9426 212.368 24.5906 212.752C24.2492 213.136 23.9826 213.589 23.7906 214.112C23.5986 214.635 23.5026 215.211 23.5026 215.84C23.5239 216.469 23.6146 217.051 23.7746 217.584C23.9452 218.117 24.1959 218.576 24.5266 218.96C24.8572 219.344 25.2626 219.643 25.7426 219.856C26.2332 220.069 26.8092 220.176 27.4706 220.176C28.4092 220.176 29.1879 219.941 29.8066 219.472C30.4252 219.003 30.8252 218.304 31.0066 217.376ZM32.0963 211.728V220H33.4563V216.32C33.4563 215.787 33.5096 215.317 33.6163 214.912C33.723 214.496 33.8936 214.144 34.1283 213.856C34.363 213.568 34.6723 213.349 35.0563 213.2C35.4403 213.051 35.9043 212.976 36.4483 212.976V211.536C35.7123 211.515 35.1043 211.664 34.6243 211.984C34.1443 212.304 33.739 212.8 33.4083 213.472H33.3763V211.728H32.0963ZM42.5352 215.072H37.7832C37.8045 214.752 37.8739 214.453 37.9912 214.176C38.1085 213.888 38.2685 213.637 38.4712 213.424C38.6739 213.211 38.9139 213.045 39.1912 212.928C39.4792 212.8 39.7992 212.736 40.1512 212.736C40.4925 212.736 40.8019 212.8 41.0792 212.928C41.3672 213.045 41.6125 213.211 41.8152 213.424C42.0285 213.627 42.1939 213.872 42.3112 214.16C42.4392 214.448 42.5139 214.752 42.5352 215.072ZM43.8472 217.376H42.5032C42.3859 217.92 42.1405 218.325 41.7672 218.592C41.4045 218.859 40.9352 218.992 40.3592 218.992C39.9112 218.992 39.5219 218.917 39.1912 218.768C38.8605 218.619 38.5885 218.421 38.3752 218.176C38.1619 217.92 38.0072 217.632 37.9112 217.312C37.8152 216.981 37.7725 216.635 37.7832 216.272H43.9752C43.9965 215.771 43.9485 215.243 43.8312 214.688C43.7245 214.133 43.5219 213.621 43.2232 213.152C42.9352 212.683 42.5459 212.299 42.0552 212C41.5752 211.691 40.9672 211.536 40.2312 211.536C39.6659 211.536 39.1432 211.643 38.6632 211.856C38.1939 212.069 37.7832 212.368 37.4312 212.752C37.0899 213.136 36.8232 213.589 36.6312 214.112C36.4392 214.635 36.3432 215.211 36.3432 215.84C36.3645 216.469 36.4552 217.051 36.6152 217.584C36.7859 218.117 37.0365 218.576 37.3672 218.96C37.6979 219.344 38.1032 219.643 38.5832 219.856C39.0739 220.069 39.6499 220.176 40.3112 220.176C41.2499 220.176 42.0285 219.941 42.6472 219.472C43.2659 219.003 43.6659 218.304 43.8472 217.376ZM56.3661 219.968C56.1314 220.107 55.8061 220.176 55.3901 220.176C55.0381 220.176 54.7554 220.08 54.5421 219.888C54.3394 219.685 54.2381 219.36 54.2381 218.912C53.8647 219.36 53.4274 219.685 52.9261 219.888C52.4354 220.08 51.9021 220.176 51.3261 220.176C50.9527 220.176 50.5954 220.133 50.2541 220.048C49.9234 219.963 49.6354 219.829 49.3901 219.648C49.1447 219.467 48.9474 219.232 48.7981 218.944C48.6594 218.645 48.5901 218.288 48.5901 217.872C48.5901 217.403 48.6701 217.019 48.8301 216.72C48.9901 216.421 49.1981 216.181 49.4541 216C49.7207 215.808 50.0194 215.664 50.3501 215.568C50.6914 215.472 51.0381 215.392 51.3901 215.328C51.7634 215.253 52.1154 215.2 52.4461 215.168C52.7874 215.125 53.0861 215.072 53.3421 215.008C53.5981 214.933 53.8007 214.832 53.9501 214.704C54.0994 214.565 54.1741 214.368 54.1741 214.112C54.1741 213.813 54.1154 213.573 53.9981 213.392C53.8914 213.211 53.7474 213.072 53.5661 212.976C53.3954 212.88 53.1981 212.816 52.9741 212.784C52.7607 212.752 52.5474 212.736 52.3341 212.736C51.7581 212.736 51.2781 212.848 50.8941 213.072C50.5101 213.285 50.3021 213.696 50.2701 214.304H48.9101C48.9314 213.792 49.0381 213.36 49.2301 213.008C49.4221 212.656 49.6781 212.373 49.9981 212.16C50.3181 211.936 50.6807 211.776 51.0861 211.68C51.5021 211.584 51.9447 211.536 52.4141 211.536C52.7874 211.536 53.1554 211.563 53.5181 211.616C53.8914 211.669 54.2274 211.781 54.5261 211.952C54.8247 212.112 55.0647 212.341 55.2461 212.64C55.4274 212.939 55.5181 213.328 55.5181 213.808V218.064C55.5181 218.384 55.5341 218.619 55.5661 218.768C55.6087 218.917 55.7367 218.992 55.9501 218.992C56.0674 218.992 56.2061 218.965 56.3661 218.912V219.968ZM54.1581 215.728C53.9874 215.856 53.7634 215.952 53.4861 216.016C53.2087 216.069 52.9154 216.117 52.6061 216.16C52.3074 216.192 52.0034 216.235 51.6941 216.288C51.3847 216.331 51.1074 216.405 50.8621 216.512C50.6167 216.619 50.4141 216.773 50.2541 216.976C50.1047 217.168 50.0301 217.435 50.0301 217.776C50.0301 218 50.0727 218.192 50.1581 218.352C50.2541 218.501 50.3714 218.624 50.5101 218.72C50.6594 218.816 50.8301 218.885 51.0221 218.928C51.2141 218.971 51.4167 218.992 51.6301 218.992C52.0781 218.992 52.4621 218.933 52.7821 218.816C53.1021 218.688 53.3634 218.533 53.5661 218.352C53.7687 218.16 53.9181 217.957 54.0141 217.744C54.1101 217.52 54.1581 217.312 54.1581 217.12V215.728ZM57.1838 211.728V220H58.5438V216.32C58.5438 215.787 58.5971 215.317 58.7038 214.912C58.8105 214.496 58.9811 214.144 59.2158 213.856C59.4505 213.568 59.7598 213.349 60.1438 213.2C60.5278 213.051 60.9918 212.976 61.5358 212.976V211.536C60.7998 211.515 60.1918 211.664 59.7118 211.984C59.2318 212.304 58.8265 212.8 58.4958 213.472H58.4638V211.728H57.1838ZM67.6227 215.072H62.8707C62.892 214.752 62.9614 214.453 63.0787 214.176C63.196 213.888 63.356 213.637 63.5587 213.424C63.7614 213.211 64.0014 213.045 64.2787 212.928C64.5667 212.8 64.8867 212.736 65.2387 212.736C65.58 212.736 65.8894 212.8 66.1667 212.928C66.4547 213.045 66.7 213.211 66.9027 213.424C67.116 213.627 67.2814 213.872 67.3987 214.16C67.5267 214.448 67.6014 214.752 67.6227 215.072ZM68.9347 217.376H67.5907C67.4734 217.92 67.228 218.325 66.8547 218.592C66.492 218.859 66.0227 218.992 65.4467 218.992C64.9987 218.992 64.6094 218.917 64.2787 218.768C63.948 218.619 63.676 218.421 63.4627 218.176C63.2494 217.92 63.0947 217.632 62.9987 217.312C62.9027 216.981 62.86 216.635 62.8707 216.272H69.0627C69.084 215.771 69.036 215.243 68.9187 214.688C68.812 214.133 68.6094 213.621 68.3107 213.152C68.0227 212.683 67.6334 212.299 67.1427 212C66.6627 211.691 66.0547 211.536 65.3187 211.536C64.7534 211.536 64.2307 211.643 63.7507 211.856C63.2814 212.069 62.8707 212.368 62.5187 212.752C62.1774 213.136 61.9107 213.589 61.7187 214.112C61.5267 214.635 61.4307 215.211 61.4307 215.84C61.452 216.469 61.5427 217.051 61.7027 217.584C61.8734 218.117 62.124 218.576 62.4547 218.96C62.7854 219.344 63.1907 219.643 63.6707 219.856C64.1614 220.069 64.7374 220.176 65.3987 220.176C66.3374 220.176 67.116 219.941 67.7347 219.472C68.3534 219.003 68.7534 218.304 68.9347 217.376ZM74.1256 211.728V220H75.4856V215.328C75.4856 214.955 75.5336 214.613 75.6296 214.304C75.7362 213.984 75.8909 213.707 76.0936 213.472C76.2962 213.237 76.5469 213.056 76.8456 212.928C77.1549 212.8 77.5176 212.736 77.9336 212.736C78.4562 212.736 78.8669 212.885 79.1656 213.184C79.4642 213.483 79.6136 213.888 79.6136 214.4V220H80.9736V214.56C80.9736 214.112 80.9256 213.707 80.8296 213.344C80.7442 212.971 80.5896 212.651 80.3656 212.384C80.1416 212.117 79.8482 211.909 79.4856 211.76C79.1229 211.611 78.6696 211.536 78.1256 211.536C76.8989 211.536 76.0029 212.037 75.4376 213.04H75.4056V211.728H74.1256ZM83.6082 215.872C83.6082 215.371 83.6722 214.928 83.8002 214.544C83.9389 214.149 84.1255 213.819 84.3602 213.552C84.5949 213.285 84.8669 213.083 85.1762 212.944C85.4962 212.805 85.8322 212.736 86.1842 212.736C86.5362 212.736 86.8669 212.805 87.1762 212.944C87.4962 213.083 87.7735 213.285 88.0082 213.552C88.2429 213.819 88.4242 214.149 88.5522 214.544C88.6909 214.928 88.7602 215.371 88.7602 215.872C88.7602 216.373 88.6909 216.821 88.5522 217.216C88.4242 217.6 88.2429 217.925 88.0082 218.192C87.7735 218.448 87.4962 218.645 87.1762 218.784C86.8669 218.923 86.5362 218.992 86.1842 218.992C85.8322 218.992 85.4962 218.923 85.1762 218.784C84.8669 218.645 84.5949 218.448 84.3602 218.192C84.1255 217.925 83.9389 217.6 83.8002 217.216C83.6722 216.821 83.6082 216.373 83.6082 215.872ZM82.1682 215.872C82.1682 216.48 82.2535 217.045 82.4242 217.568C82.5949 218.091 82.8509 218.549 83.1922 218.944C83.5335 219.328 83.9549 219.632 84.4562 219.856C84.9575 220.069 85.5335 220.176 86.1842 220.176C86.8455 220.176 87.4215 220.069 87.9122 219.856C88.4135 219.632 88.8349 219.328 89.1762 218.944C89.5175 218.549 89.7735 218.091 89.9442 217.568C90.1149 217.045 90.2002 216.48 90.2002 215.872C90.2002 215.264 90.1149 214.699 89.9442 214.176C89.7735 213.643 89.5175 213.184 89.1762 212.8C88.8349 212.405 88.4135 212.096 87.9122 211.872C87.4215 211.648 86.8455 211.536 86.1842 211.536C85.5335 211.536 84.9575 211.648 84.4562 211.872C83.9549 212.096 83.5335 212.405 83.1922 212.8C82.8509 213.184 82.5949 213.643 82.4242 214.176C82.2535 214.699 82.1682 215.264 82.1682 215.872ZM103.713 212.016H105.233C105.147 211.408 104.966 210.875 104.689 210.416C104.411 209.947 104.065 209.557 103.649 209.248C103.233 208.939 102.758 208.704 102.225 208.544C101.691 208.384 101.126 208.304 100.529 208.304C99.6541 208.304 98.8755 208.464 98.1928 208.784C97.5208 209.093 96.9555 209.52 96.4968 210.064C96.0488 210.608 95.7075 211.248 95.4728 211.984C95.2381 212.709 95.1208 213.488 95.1208 214.32C95.1208 215.152 95.2275 215.931 95.4408 216.656C95.6648 217.381 95.9955 218.011 96.4328 218.544C96.8701 219.077 97.4195 219.499 98.0808 219.808C98.7421 220.107 99.5155 220.256 100.401 220.256C101.862 220.256 103.014 219.856 103.857 219.056C104.699 218.256 105.195 217.136 105.345 215.696H103.825C103.793 216.165 103.697 216.603 103.537 217.008C103.377 217.413 103.153 217.765 102.865 218.064C102.587 218.352 102.251 218.581 101.857 218.752C101.473 218.912 101.03 218.992 100.529 218.992C99.8461 218.992 99.2595 218.864 98.7688 218.608C98.2781 218.352 97.8728 218.011 97.5528 217.584C97.2435 217.147 97.0141 216.64 96.8648 216.064C96.7155 215.477 96.6408 214.859 96.6408 214.208C96.6408 213.611 96.7155 213.035 96.8648 212.48C97.0141 211.925 97.2435 211.435 97.5528 211.008C97.8728 210.571 98.2728 210.224 98.7528 209.968C99.2435 209.712 99.8301 209.584 100.513 209.584C101.313 209.584 102.001 209.787 102.577 210.192C103.163 210.597 103.542 211.205 103.713 212.016ZM113.932 219.968C113.697 220.107 113.372 220.176 112.956 220.176C112.604 220.176 112.321 220.08 112.108 219.888C111.905 219.685 111.804 219.36 111.804 218.912C111.43 219.36 110.993 219.685 110.492 219.888C110.001 220.08 109.468 220.176 108.892 220.176C108.518 220.176 108.161 220.133 107.82 220.048C107.489 219.963 107.201 219.829 106.956 219.648C106.71 219.467 106.513 219.232 106.364 218.944C106.225 218.645 106.156 218.288 106.156 217.872C106.156 217.403 106.236 217.019 106.396 216.72C106.556 216.421 106.764 216.181 107.02 216C107.286 215.808 107.585 215.664 107.916 215.568C108.257 215.472 108.604 215.392 108.956 215.328C109.329 215.253 109.681 215.2 110.012 215.168C110.353 215.125 110.652 215.072 110.908 215.008C111.164 214.933 111.366 214.832 111.516 214.704C111.665 214.565 111.74 214.368 111.74 214.112C111.74 213.813 111.681 213.573 111.564 213.392C111.457 213.211 111.313 213.072 111.132 212.976C110.961 212.88 110.764 212.816 110.54 212.784C110.326 212.752 110.113 212.736 109.9 212.736C109.324 212.736 108.844 212.848 108.46 213.072C108.076 213.285 107.868 213.696 107.836 214.304H106.476C106.497 213.792 106.604 213.36 106.796 213.008C106.988 212.656 107.244 212.373 107.564 212.16C107.884 211.936 108.246 211.776 108.652 211.68C109.068 211.584 109.51 211.536 109.98 211.536C110.353 211.536 110.721 211.563 111.084 211.616C111.457 211.669 111.793 211.781 112.092 211.952C112.39 212.112 112.63 212.341 112.812 212.64C112.993 212.939 113.084 213.328 113.084 213.808V218.064C113.084 218.384 113.1 218.619 113.132 218.768C113.174 218.917 113.302 218.992 113.516 218.992C113.633 218.992 113.772 218.965 113.932 218.912V219.968ZM111.724 215.728C111.553 215.856 111.329 215.952 111.052 216.016C110.774 216.069 110.481 216.117 110.172 216.16C109.873 216.192 109.569 216.235 109.26 216.288C108.95 216.331 108.673 216.405 108.428 216.512C108.182 216.619 107.98 216.773 107.82 216.976C107.67 217.168 107.596 217.435 107.596 217.776C107.596 218 107.638 218.192 107.724 218.352C107.82 218.501 107.937 218.624 108.076 218.72C108.225 218.816 108.396 218.885 108.588 218.928C108.78 218.971 108.982 218.992 109.196 218.992C109.644 218.992 110.028 218.933 110.348 218.816C110.668 218.688 110.929 218.533 111.132 218.352C111.334 218.16 111.484 217.957 111.58 217.744C111.676 217.52 111.724 217.312 111.724 217.12V215.728ZM114.797 211.728V220H116.157V215.328C116.157 214.955 116.205 214.613 116.301 214.304C116.408 213.984 116.563 213.707 116.765 213.472C116.968 213.237 117.219 213.056 117.517 212.928C117.827 212.8 118.189 212.736 118.605 212.736C119.128 212.736 119.539 212.885 119.837 213.184C120.136 213.483 120.285 213.888 120.285 214.4V220H121.645V214.56C121.645 214.112 121.597 213.707 121.501 213.344C121.416 212.971 121.261 212.651 121.037 212.384C120.813 212.117 120.52 211.909 120.157 211.76C119.795 211.611 119.341 211.536 118.797 211.536C117.571 211.536 116.675 212.037 116.109 213.04H116.077V211.728H114.797ZM128.904 214.384H130.312C130.259 213.893 130.131 213.472 129.928 213.12C129.725 212.757 129.464 212.459 129.144 212.224C128.835 211.989 128.472 211.819 128.056 211.712C127.651 211.595 127.213 211.536 126.744 211.536C126.093 211.536 125.523 211.653 125.032 211.888C124.541 212.112 124.131 212.427 123.8 212.832C123.48 213.227 123.24 213.696 123.08 214.24C122.92 214.773 122.84 215.349 122.84 215.968C122.84 216.587 122.92 217.157 123.08 217.68C123.251 218.192 123.496 218.635 123.816 219.008C124.147 219.381 124.552 219.669 125.032 219.872C125.523 220.075 126.083 220.176 126.712 220.176C127.768 220.176 128.6 219.899 129.208 219.344C129.827 218.789 130.211 218 130.36 216.976H128.968C128.883 217.616 128.648 218.112 128.264 218.464C127.891 218.816 127.368 218.992 126.696 218.992C126.269 218.992 125.901 218.907 125.592 218.736C125.283 218.565 125.032 218.341 124.84 218.064C124.648 217.776 124.504 217.451 124.408 217.088C124.323 216.725 124.28 216.352 124.28 215.968C124.28 215.552 124.323 215.152 124.408 214.768C124.493 214.373 124.632 214.027 124.824 213.728C125.027 213.429 125.293 213.189 125.624 213.008C125.955 212.827 126.365 212.736 126.856 212.736C127.432 212.736 127.891 212.88 128.232 213.168C128.573 213.456 128.797 213.861 128.904 214.384ZM137.226 215.072H132.474C132.495 214.752 132.564 214.453 132.682 214.176C132.799 213.888 132.959 213.637 133.162 213.424C133.364 213.211 133.604 213.045 133.882 212.928C134.17 212.8 134.49 212.736 134.842 212.736C135.183 212.736 135.492 212.8 135.77 212.928C136.058 213.045 136.303 213.211 136.506 213.424C136.719 213.627 136.884 213.872 137.002 214.16C137.13 214.448 137.204 214.752 137.226 215.072ZM138.538 217.376H137.194C137.076 217.92 136.831 218.325 136.458 218.592C136.095 218.859 135.626 218.992 135.05 218.992C134.602 218.992 134.212 218.917 133.882 218.768C133.551 218.619 133.279 218.421 133.066 218.176C132.852 217.92 132.698 217.632 132.602 217.312C132.506 216.981 132.463 216.635 132.474 216.272H138.666C138.687 215.771 138.639 215.243 138.522 214.688C138.415 214.133 138.212 213.621 137.914 213.152C137.626 212.683 137.236 212.299 136.746 212C136.266 211.691 135.658 211.536 134.922 211.536C134.356 211.536 133.834 211.643 133.354 211.856C132.884 212.069 132.474 212.368 132.122 212.752C131.78 213.136 131.514 213.589 131.322 214.112C131.13 214.635 131.034 215.211 131.034 215.84C131.055 216.469 131.146 217.051 131.306 217.584C131.476 218.117 131.727 218.576 132.058 218.96C132.388 219.344 132.794 219.643 133.274 219.856C133.764 220.069 134.34 220.176 135.002 220.176C135.94 220.176 136.719 219.941 137.338 219.472C137.956 219.003 138.356 218.304 138.538 217.376ZM139.756 208.576V220H141.116V208.576H139.756ZM142.902 208.576V220H144.262V208.576H142.902ZM151.713 215.072H146.961C146.983 214.752 147.052 214.453 147.169 214.176C147.287 213.888 147.447 213.637 147.649 213.424C147.852 213.211 148.092 213.045 148.369 212.928C148.657 212.8 148.977 212.736 149.329 212.736C149.671 212.736 149.98 212.8 150.257 212.928C150.545 213.045 150.791 213.211 150.993 213.424C151.207 213.627 151.372 213.872 151.489 214.16C151.617 214.448 151.692 214.752 151.713 215.072ZM153.025 217.376H151.681C151.564 217.92 151.319 218.325 150.945 218.592C150.583 218.859 150.113 218.992 149.537 218.992C149.089 218.992 148.7 218.917 148.369 218.768C148.039 218.619 147.767 218.421 147.553 218.176C147.34 217.92 147.185 217.632 147.089 217.312C146.993 216.981 146.951 216.635 146.961 216.272H153.153C153.175 215.771 153.127 215.243 153.009 214.688C152.903 214.133 152.7 213.621 152.401 213.152C152.113 212.683 151.724 212.299 151.233 212C150.753 211.691 150.145 211.536 149.409 211.536C148.844 211.536 148.321 211.643 147.841 211.856C147.372 212.069 146.961 212.368 146.609 212.752C146.268 213.136 146.001 213.589 145.809 214.112C145.617 214.635 145.521 215.211 145.521 215.84C145.543 216.469 145.633 217.051 145.793 217.584C145.964 218.117 146.215 218.576 146.545 218.96C146.876 219.344 147.281 219.643 147.761 219.856C148.252 220.069 148.828 220.176 149.489 220.176C150.428 220.176 151.207 219.941 151.825 219.472C152.444 219.003 152.844 218.304 153.025 217.376ZM155.155 215.936C155.155 215.531 155.198 215.136 155.283 214.752C155.368 214.368 155.507 214.027 155.699 213.728C155.891 213.429 156.147 213.189 156.467 213.008C156.787 212.827 157.176 212.736 157.635 212.736C158.104 212.736 158.504 212.827 158.835 213.008C159.166 213.179 159.432 213.408 159.635 213.696C159.848 213.984 160.003 214.32 160.099 214.704C160.195 215.077 160.243 215.467 160.243 215.872C160.243 216.256 160.195 216.635 160.099 217.008C160.014 217.381 159.87 217.717 159.667 218.016C159.464 218.304 159.203 218.539 158.883 218.72C158.563 218.901 158.174 218.992 157.715 218.992C157.278 218.992 156.894 218.907 156.563 218.736C156.243 218.565 155.976 218.336 155.763 218.048C155.56 217.76 155.406 217.435 155.299 217.072C155.203 216.699 155.155 216.32 155.155 215.936ZM161.555 220V208.576H160.195V212.832H160.163C160.014 212.587 159.827 212.384 159.603 212.224C159.39 212.053 159.16 211.92 158.915 211.824C158.67 211.717 158.424 211.643 158.179 211.6C157.934 211.557 157.704 211.536 157.491 211.536C156.862 211.536 156.307 211.653 155.827 211.888C155.358 212.112 154.963 212.421 154.643 212.816C154.334 213.2 154.099 213.653 153.939 214.176C153.79 214.699 153.715 215.253 153.715 215.84C153.715 216.427 153.795 216.981 153.955 217.504C154.115 218.027 154.35 218.485 154.659 218.88C154.979 219.275 155.374 219.589 155.843 219.824C156.323 220.059 156.883 220.176 157.523 220.176C158.099 220.176 158.627 220.075 159.107 219.872C159.587 219.669 159.939 219.339 160.163 218.88H160.195V220H161.555ZM167.349 208.576V220H168.709V218.896H168.741C168.89 219.141 169.071 219.349 169.285 219.52C169.509 219.68 169.743 219.808 169.989 219.904C170.234 220 170.479 220.069 170.725 220.112C170.981 220.155 171.21 220.176 171.413 220.176C172.042 220.176 172.591 220.064 173.061 219.84C173.541 219.616 173.935 219.312 174.245 218.928C174.565 218.533 174.799 218.075 174.949 217.552C175.109 217.029 175.189 216.475 175.189 215.888C175.189 215.301 175.109 214.747 174.949 214.224C174.789 213.701 174.549 213.243 174.229 212.848C173.919 212.443 173.525 212.123 173.045 211.888C172.575 211.653 172.021 211.536 171.381 211.536C170.805 211.536 170.277 211.643 169.797 211.856C169.317 212.059 168.965 212.389 168.741 212.848H168.709V208.576H167.349ZM173.749 215.792C173.749 216.197 173.706 216.592 173.621 216.976C173.535 217.36 173.397 217.701 173.205 218C173.013 218.299 172.757 218.539 172.437 218.72C172.127 218.901 171.738 218.992 171.269 218.992C170.799 218.992 170.399 218.907 170.069 218.736C169.738 218.555 169.466 218.32 169.253 218.032C169.05 217.744 168.901 217.413 168.805 217.04C168.709 216.656 168.661 216.261 168.661 215.856C168.661 215.472 168.703 215.093 168.789 214.72C168.885 214.347 169.034 214.016 169.237 213.728C169.439 213.429 169.701 213.189 170.021 213.008C170.341 212.827 170.73 212.736 171.189 212.736C171.626 212.736 172.005 212.821 172.325 212.992C172.655 213.163 172.922 213.392 173.125 213.68C173.338 213.968 173.493 214.299 173.589 214.672C173.695 215.035 173.749 215.408 173.749 215.792ZM177.377 215.872C177.377 215.371 177.441 214.928 177.569 214.544C177.708 214.149 177.894 213.819 178.129 213.552C178.364 213.285 178.636 213.083 178.945 212.944C179.265 212.805 179.601 212.736 179.953 212.736C180.305 212.736 180.636 212.805 180.945 212.944C181.265 213.083 181.542 213.285 181.777 213.552C182.012 213.819 182.193 214.149 182.321 214.544C182.46 214.928 182.529 215.371 182.529 215.872C182.529 216.373 182.46 216.821 182.321 217.216C182.193 217.6 182.012 217.925 181.777 218.192C181.542 218.448 181.265 218.645 180.945 218.784C180.636 218.923 180.305 218.992 179.953 218.992C179.601 218.992 179.265 218.923 178.945 218.784C178.636 218.645 178.364 218.448 178.129 218.192C177.894 217.925 177.708 217.6 177.569 217.216C177.441 216.821 177.377 216.373 177.377 215.872ZM175.937 215.872C175.937 216.48 176.022 217.045 176.193 217.568C176.364 218.091 176.62 218.549 176.961 218.944C177.302 219.328 177.724 219.632 178.225 219.856C178.726 220.069 179.302 220.176 179.953 220.176C180.614 220.176 181.19 220.069 181.681 219.856C182.182 219.632 182.604 219.328 182.945 218.944C183.286 218.549 183.542 218.091 183.713 217.568C183.884 217.045 183.969 216.48 183.969 215.872C183.969 215.264 183.884 214.699 183.713 214.176C183.542 213.643 183.286 213.184 182.945 212.8C182.604 212.405 182.182 212.096 181.681 211.872C181.19 211.648 180.614 211.536 179.953 211.536C179.302 211.536 178.726 211.648 178.225 211.872C177.724 212.096 177.302 212.405 176.961 212.8C176.62 213.184 176.364 213.643 176.193 214.176C176.022 214.699 175.937 215.264 175.937 215.872ZM186.164 215.872C186.164 215.371 186.228 214.928 186.356 214.544C186.495 214.149 186.682 213.819 186.916 213.552C187.151 213.285 187.423 213.083 187.732 212.944C188.052 212.805 188.388 212.736 188.74 212.736C189.092 212.736 189.423 212.805 189.732 212.944C190.052 213.083 190.33 213.285 190.564 213.552C190.799 213.819 190.98 214.149 191.108 214.544C191.247 214.928 191.316 215.371 191.316 215.872C191.316 216.373 191.247 216.821 191.108 217.216C190.98 217.6 190.799 217.925 190.564 218.192C190.33 218.448 190.052 218.645 189.732 218.784C189.423 218.923 189.092 218.992 188.74 218.992C188.388 218.992 188.052 218.923 187.732 218.784C187.423 218.645 187.151 218.448 186.916 218.192C186.682 217.925 186.495 217.6 186.356 217.216C186.228 216.821 186.164 216.373 186.164 215.872ZM184.724 215.872C184.724 216.48 184.81 217.045 184.98 217.568C185.151 218.091 185.407 218.549 185.748 218.944C186.09 219.328 186.511 219.632 187.012 219.856C187.514 220.069 188.09 220.176 188.74 220.176C189.402 220.176 189.978 220.069 190.468 219.856C190.97 219.632 191.391 219.328 191.732 218.944C192.074 218.549 192.33 218.091 192.5 217.568C192.671 217.045 192.756 216.48 192.756 215.872C192.756 215.264 192.671 214.699 192.5 214.176C192.33 213.643 192.074 213.184 191.732 212.8C191.391 212.405 190.97 212.096 190.468 211.872C189.978 211.648 189.402 211.536 188.74 211.536C188.09 211.536 187.514 211.648 187.012 211.872C186.511 212.096 186.09 212.405 185.748 212.8C185.407 213.184 185.151 213.643 184.98 214.176C184.81 214.699 184.724 215.264 184.724 215.872ZM194.952 215.872C194.952 215.371 195.016 214.928 195.144 214.544C195.283 214.149 195.469 213.819 195.704 213.552C195.939 213.285 196.211 213.083 196.52 212.944C196.84 212.805 197.176 212.736 197.528 212.736C197.88 212.736 198.211 212.805 198.52 212.944C198.84 213.083 199.117 213.285 199.352 213.552C199.587 213.819 199.768 214.149 199.896 214.544C200.035 214.928 200.104 215.371 200.104 215.872C200.104 216.373 200.035 216.821 199.896 217.216C199.768 217.6 199.587 217.925 199.352 218.192C199.117 218.448 198.84 218.645 198.52 218.784C198.211 218.923 197.88 218.992 197.528 218.992C197.176 218.992 196.84 218.923 196.52 218.784C196.211 218.645 195.939 218.448 195.704 218.192C195.469 217.925 195.283 217.6 195.144 217.216C195.016 216.821 194.952 216.373 194.952 215.872ZM193.512 215.872C193.512 216.48 193.597 217.045 193.768 217.568C193.939 218.091 194.195 218.549 194.536 218.944C194.877 219.328 195.299 219.632 195.8 219.856C196.301 220.069 196.877 220.176 197.528 220.176C198.189 220.176 198.765 220.069 199.256 219.856C199.757 219.632 200.179 219.328 200.52 218.944C200.861 218.549 201.117 218.091 201.288 217.568C201.459 217.045 201.544 216.48 201.544 215.872C201.544 215.264 201.459 214.699 201.288 214.176C201.117 213.643 200.861 213.184 200.52 212.8C200.179 212.405 199.757 212.096 199.256 211.872C198.765 211.648 198.189 211.536 197.528 211.536C196.877 211.536 196.301 211.648 195.8 211.872C195.299 212.096 194.877 212.405 194.536 212.8C194.195 213.184 193.939 213.643 193.768 214.176C193.597 214.699 193.512 215.264 193.512 215.872ZM202.827 208.576V220H204.187V216.864L205.467 215.68L208.299 220H210.027L206.507 214.736L209.787 211.728H207.963L204.187 215.344V208.576H202.827ZM212.084 210.24V208.576H210.724V210.24H212.084ZM210.724 211.728V220H212.084V211.728H210.724ZM213.791 211.728V220H215.151V215.328C215.151 214.955 215.199 214.613 215.295 214.304C215.402 213.984 215.557 213.707 215.759 213.472C215.962 213.237 216.213 213.056 216.511 212.928C216.821 212.8 217.183 212.736 217.599 212.736C218.122 212.736 218.533 212.885 218.831 213.184C219.13 213.483 219.279 213.888 219.279 214.4V220H220.639V214.56C220.639 214.112 220.591 213.707 220.495 213.344C220.41 212.971 220.255 212.651 220.031 212.384C219.807 212.117 219.514 211.909 219.151 211.76C218.789 211.611 218.335 211.536 217.791 211.536C216.565 211.536 215.669 212.037 215.103 213.04H215.071V211.728H213.791ZM229.418 219.296V211.728H228.138V212.912H228.122C227.876 212.453 227.535 212.112 227.098 211.888C226.66 211.653 226.18 211.536 225.658 211.536C224.943 211.536 224.34 211.675 223.85 211.952C223.359 212.219 222.964 212.565 222.666 212.992C222.367 213.408 222.154 213.877 222.026 214.4C221.898 214.912 221.834 215.413 221.834 215.904C221.834 216.469 221.908 217.008 222.058 217.52C222.218 218.021 222.452 218.464 222.762 218.848C223.071 219.221 223.455 219.52 223.914 219.744C224.372 219.968 224.911 220.08 225.53 220.08C226.063 220.08 226.564 219.963 227.034 219.728C227.514 219.483 227.871 219.104 228.106 218.592H228.138V219.136C228.138 219.595 228.09 220.016 227.994 220.4C227.908 220.784 227.764 221.109 227.562 221.376C227.359 221.653 227.103 221.867 226.794 222.016C226.484 222.176 226.106 222.256 225.658 222.256C225.434 222.256 225.199 222.229 224.954 222.176C224.708 222.133 224.479 222.059 224.266 221.952C224.063 221.845 223.887 221.707 223.738 221.536C223.599 221.365 223.524 221.157 223.514 220.912H222.154C222.175 221.36 222.292 221.739 222.506 222.048C222.719 222.357 222.986 222.608 223.306 222.8C223.636 222.992 223.999 223.131 224.394 223.216C224.799 223.301 225.194 223.344 225.578 223.344C226.9 223.344 227.871 223.008 228.49 222.336C229.108 221.664 229.418 220.651 229.418 219.296ZM225.61 218.896C225.162 218.896 224.788 218.805 224.49 218.624C224.191 218.432 223.951 218.187 223.77 217.888C223.588 217.579 223.46 217.237 223.386 216.864C223.311 216.491 223.274 216.117 223.274 215.744C223.274 215.349 223.316 214.971 223.402 214.608C223.498 214.245 223.642 213.925 223.834 213.648C224.036 213.371 224.292 213.152 224.602 212.992C224.911 212.821 225.284 212.736 225.722 212.736C226.148 212.736 226.511 212.821 226.81 212.992C227.108 213.163 227.348 213.392 227.53 213.68C227.722 213.957 227.86 214.272 227.946 214.624C228.031 214.976 228.074 215.333 228.074 215.696C228.074 216.08 228.026 216.464 227.93 216.848C227.844 217.232 227.706 217.579 227.514 217.888C227.322 218.187 227.066 218.432 226.746 218.624C226.436 218.805 226.058 218.896 225.61 218.896ZM235.074 211.728V220H236.434V216.32C236.434 215.787 236.488 215.317 236.594 214.912C236.701 214.496 236.872 214.144 237.106 213.856C237.341 213.568 237.65 213.349 238.034 213.2C238.418 213.051 238.882 212.976 239.426 212.976V211.536C238.69 211.515 238.082 211.664 237.602 211.984C237.122 212.304 236.717 212.8 236.386 213.472H236.354V211.728H235.074ZM245.513 215.072H240.761C240.783 214.752 240.852 214.453 240.969 214.176C241.087 213.888 241.247 213.637 241.449 213.424C241.652 213.211 241.892 213.045 242.169 212.928C242.457 212.8 242.777 212.736 243.129 212.736C243.471 212.736 243.78 212.8 244.057 212.928C244.345 213.045 244.591 213.211 244.793 213.424C245.007 213.627 245.172 213.872 245.289 214.16C245.417 214.448 245.492 214.752 245.513 215.072ZM246.825 217.376H245.481C245.364 217.92 245.119 218.325 244.745 218.592C244.383 218.859 243.913 218.992 243.337 218.992C242.889 218.992 242.5 218.917 242.169 218.768C241.839 218.619 241.567 218.421 241.353 218.176C241.14 217.92 240.985 217.632 240.889 217.312C240.793 216.981 240.751 216.635 240.761 216.272H246.953C246.975 215.771 246.927 215.243 246.809 214.688C246.703 214.133 246.5 213.621 246.201 213.152C245.913 212.683 245.524 212.299 245.033 212C244.553 211.691 243.945 211.536 243.209 211.536C242.644 211.536 242.121 211.643 241.641 211.856C241.172 212.069 240.761 212.368 240.409 212.752C240.068 213.136 239.801 213.589 239.609 214.112C239.417 214.635 239.321 215.211 239.321 215.84C239.343 216.469 239.433 217.051 239.593 217.584C239.764 218.117 240.015 218.576 240.345 218.96C240.676 219.344 241.081 219.643 241.561 219.856C242.052 220.069 242.628 220.176 243.289 220.176C244.228 220.176 245.007 219.941 245.625 219.472C246.244 219.003 246.644 218.304 246.825 217.376ZM248.955 215.936C248.955 215.531 248.998 215.136 249.083 214.752C249.168 214.368 249.307 214.027 249.499 213.728C249.691 213.429 249.947 213.189 250.267 213.008C250.587 212.827 250.976 212.736 251.435 212.736C251.904 212.736 252.304 212.827 252.635 213.008C252.966 213.179 253.232 213.408 253.435 213.696C253.648 213.984 253.803 214.32 253.899 214.704C253.995 215.077 254.043 215.467 254.043 215.872C254.043 216.256 253.995 216.635 253.899 217.008C253.814 217.381 253.67 217.717 253.467 218.016C253.264 218.304 253.003 218.539 252.683 218.72C252.363 218.901 251.974 218.992 251.515 218.992C251.078 218.992 250.694 218.907 250.363 218.736C250.043 218.565 249.776 218.336 249.563 218.048C249.36 217.76 249.206 217.435 249.099 217.072C249.003 216.699 248.955 216.32 248.955 215.936ZM255.355 223.152V211.728H253.995V212.832H253.963C253.814 212.587 253.627 212.384 253.403 212.224C253.19 212.053 252.96 211.92 252.715 211.824C252.47 211.717 252.224 211.643 251.979 211.6C251.734 211.557 251.504 211.536 251.291 211.536C250.662 211.536 250.107 211.653 249.627 211.888C249.158 212.112 248.763 212.421 248.443 212.816C248.134 213.2 247.899 213.653 247.739 214.176C247.59 214.699 247.515 215.253 247.515 215.84C247.515 216.427 247.595 216.981 247.755 217.504C247.915 218.027 248.15 218.485 248.459 218.88C248.779 219.275 249.174 219.589 249.643 219.824C250.123 220.059 250.683 220.176 251.323 220.176C251.899 220.176 252.427 220.075 252.907 219.872C253.387 219.669 253.739 219.339 253.963 218.88H253.995V223.152H255.355ZM263.895 220V211.728H262.535V216.4C262.535 216.773 262.482 217.12 262.375 217.44C262.279 217.749 262.13 218.021 261.927 218.256C261.725 218.491 261.469 218.672 261.159 218.8C260.861 218.928 260.503 218.992 260.087 218.992C259.565 218.992 259.154 218.843 258.855 218.544C258.557 218.245 258.407 217.84 258.407 217.328V211.728H257.047V217.168C257.047 217.616 257.09 218.027 257.175 218.4C257.271 218.763 257.431 219.077 257.655 219.344C257.879 219.611 258.173 219.819 258.535 219.968C258.898 220.107 259.351 220.176 259.895 220.176C260.503 220.176 261.031 220.059 261.479 219.824C261.927 219.579 262.295 219.2 262.583 218.688H262.615V220H263.895ZM271.282 215.072H266.53C266.551 214.752 266.621 214.453 266.738 214.176C266.855 213.888 267.015 213.637 267.218 213.424C267.421 213.211 267.661 213.045 267.938 212.928C268.226 212.8 268.546 212.736 268.898 212.736C269.239 212.736 269.549 212.8 269.826 212.928C270.114 213.045 270.359 213.211 270.562 213.424C270.775 213.627 270.941 213.872 271.058 214.16C271.186 214.448 271.261 214.752 271.282 215.072ZM272.594 217.376H271.25C271.133 217.92 270.887 218.325 270.514 218.592C270.151 218.859 269.682 218.992 269.106 218.992C268.658 218.992 268.269 218.917 267.938 218.768C267.607 218.619 267.335 218.421 267.122 218.176C266.909 217.92 266.754 217.632 266.658 217.312C266.562 216.981 266.519 216.635 266.53 216.272H272.722C272.743 215.771 272.695 215.243 272.578 214.688C272.471 214.133 272.269 213.621 271.97 213.152C271.682 212.683 271.293 212.299 270.802 212C270.322 211.691 269.714 211.536 268.978 211.536C268.413 211.536 267.89 211.643 267.41 211.856C266.941 212.069 266.53 212.368 266.178 212.752C265.837 213.136 265.57 213.589 265.378 214.112C265.186 214.635 265.09 215.211 265.09 215.84C265.111 216.469 265.202 217.051 265.362 217.584C265.533 218.117 265.783 218.576 266.114 218.96C266.445 219.344 266.85 219.643 267.33 219.856C267.821 220.069 268.397 220.176 269.058 220.176C269.997 220.176 270.775 219.941 271.394 219.472C272.013 219.003 272.413 218.304 272.594 217.376ZM274.564 217.392H273.204C273.225 217.904 273.332 218.341 273.524 218.704C273.716 219.056 273.972 219.344 274.292 219.568C274.612 219.781 274.98 219.936 275.396 220.032C275.812 220.128 276.249 220.176 276.708 220.176C277.124 220.176 277.54 220.133 277.956 220.048C278.382 219.973 278.761 219.835 279.092 219.632C279.433 219.429 279.705 219.163 279.908 218.832C280.121 218.501 280.228 218.085 280.228 217.584C280.228 217.189 280.148 216.859 279.988 216.592C279.838 216.325 279.636 216.107 279.38 215.936C279.134 215.755 278.846 215.611 278.516 215.504C278.196 215.397 277.865 215.307 277.524 215.232C277.204 215.157 276.884 215.088 276.564 215.024C276.244 214.949 275.956 214.864 275.7 214.768C275.444 214.661 275.23 214.533 275.06 214.384C274.9 214.224 274.82 214.027 274.82 213.792C274.82 213.579 274.873 213.408 274.98 213.28C275.086 213.141 275.225 213.035 275.396 212.96C275.566 212.875 275.753 212.816 275.956 212.784C276.169 212.752 276.377 212.736 276.58 212.736C276.804 212.736 277.022 212.763 277.236 212.816C277.46 212.859 277.662 212.933 277.844 213.04C278.025 213.147 278.174 213.291 278.292 213.472C278.409 213.643 278.478 213.861 278.5 214.128H279.86C279.828 213.627 279.721 213.211 279.54 212.88C279.358 212.539 279.113 212.272 278.804 212.08C278.505 211.877 278.158 211.739 277.764 211.664C277.369 211.579 276.937 211.536 276.468 211.536C276.105 211.536 275.737 211.584 275.364 211.68C275.001 211.765 274.67 211.904 274.372 212.096C274.084 212.277 273.844 212.517 273.652 212.816C273.47 213.115 273.38 213.472 273.38 213.888C273.38 214.421 273.513 214.837 273.78 215.136C274.046 215.435 274.377 215.669 274.772 215.84C275.177 216 275.614 216.128 276.084 216.224C276.553 216.309 276.985 216.411 277.38 216.528C277.785 216.635 278.121 216.779 278.388 216.96C278.654 217.141 278.788 217.408 278.788 217.76C278.788 218.016 278.724 218.229 278.596 218.4C278.468 218.56 278.302 218.683 278.1 218.768C277.908 218.853 277.694 218.912 277.46 218.944C277.225 218.976 277.001 218.992 276.788 218.992C276.51 218.992 276.238 218.965 275.972 218.912C275.716 218.859 275.481 218.773 275.268 218.656C275.065 218.528 274.9 218.363 274.772 218.16C274.644 217.947 274.574 217.691 274.564 217.392ZM283.22 211.728V209.248H281.86V211.728H280.452V212.928H281.86V218.192C281.86 218.576 281.897 218.885 281.972 219.12C282.046 219.355 282.158 219.536 282.308 219.664C282.468 219.792 282.67 219.883 282.916 219.936C283.172 219.979 283.476 220 283.828 220H284.868V218.8H284.244C284.03 218.8 283.854 218.795 283.716 218.784C283.588 218.763 283.486 218.725 283.412 218.672C283.337 218.619 283.284 218.544 283.252 218.448C283.23 218.352 283.22 218.224 283.22 218.064V212.928H284.868V211.728H283.22ZM286.811 217.392H285.451C285.472 217.904 285.579 218.341 285.771 218.704C285.963 219.056 286.219 219.344 286.539 219.568C286.859 219.781 287.227 219.936 287.643 220.032C288.059 220.128 288.496 220.176 288.955 220.176C289.371 220.176 289.787 220.133 290.203 220.048C290.629 219.973 291.008 219.835 291.339 219.632C291.68 219.429 291.952 219.163 292.155 218.832C292.368 218.501 292.475 218.085 292.475 217.584C292.475 217.189 292.395 216.859 292.235 216.592C292.085 216.325 291.883 216.107 291.627 215.936C291.381 215.755 291.093 215.611 290.763 215.504C290.443 215.397 290.112 215.307 289.771 215.232C289.451 215.157 289.131 215.088 288.811 215.024C288.491 214.949 288.203 214.864 287.947 214.768C287.691 214.661 287.477 214.533 287.307 214.384C287.147 214.224 287.067 214.027 287.067 213.792C287.067 213.579 287.12 213.408 287.227 213.28C287.333 213.141 287.472 213.035 287.643 212.96C287.813 212.875 288 212.816 288.203 212.784C288.416 212.752 288.624 212.736 288.827 212.736C289.051 212.736 289.269 212.763 289.483 212.816C289.707 212.859 289.909 212.933 290.091 213.04C290.272 213.147 290.421 213.291 290.539 213.472C290.656 213.643 290.725 213.861 290.747 214.128H292.107C292.075 213.627 291.968 213.211 291.787 212.88C291.605 212.539 291.36 212.272 291.051 212.08C290.752 211.877 290.405 211.739 290.011 211.664C289.616 211.579 289.184 211.536 288.715 211.536C288.352 211.536 287.984 211.584 287.611 211.68C287.248 211.765 286.917 211.904 286.619 212.096C286.331 212.277 286.091 212.517 285.899 212.816C285.717 213.115 285.627 213.472 285.627 213.888C285.627 214.421 285.76 214.837 286.027 215.136C286.293 215.435 286.624 215.669 287.019 215.84C287.424 216 287.861 216.128 288.331 216.224C288.8 216.309 289.232 216.411 289.627 216.528C290.032 216.635 290.368 216.779 290.635 216.96C290.901 217.141 291.035 217.408 291.035 217.76C291.035 218.016 290.971 218.229 290.843 218.4C290.715 218.56 290.549 218.683 290.347 218.768C290.155 218.853 289.941 218.912 289.707 218.944C289.472 218.976 289.248 218.992 289.035 218.992C288.757 218.992 288.485 218.965 288.219 218.912C287.963 218.859 287.728 218.773 287.515 218.656C287.312 218.528 287.147 218.363 287.019 218.16C286.891 217.947 286.821 217.691 286.811 217.392ZM299.52 211.728V209.248H298.16V211.728H296.752V212.928H298.16V218.192C298.16 218.576 298.197 218.885 298.272 219.12C298.346 219.355 298.458 219.536 298.608 219.664C298.768 219.792 298.97 219.883 299.216 219.936C299.472 219.979 299.776 220 300.128 220H301.168V218.8H300.544C300.33 218.8 300.154 218.795 300.016 218.784C299.888 218.763 299.786 218.725 299.712 218.672C299.637 218.619 299.584 218.544 299.552 218.448C299.53 218.352 299.52 218.224 299.52 218.064V212.928H301.168V211.728H299.52ZM303.271 215.872C303.271 215.371 303.335 214.928 303.463 214.544C303.601 214.149 303.788 213.819 304.023 213.552C304.257 213.285 304.529 213.083 304.839 212.944C305.159 212.805 305.495 212.736 305.847 212.736C306.199 212.736 306.529 212.805 306.839 212.944C307.159 213.083 307.436 213.285 307.671 213.552C307.905 213.819 308.087 214.149 308.215 214.544C308.353 214.928 308.423 215.371 308.423 215.872C308.423 216.373 308.353 216.821 308.215 217.216C308.087 217.6 307.905 217.925 307.671 218.192C307.436 218.448 307.159 218.645 306.839 218.784C306.529 218.923 306.199 218.992 305.847 218.992C305.495 218.992 305.159 218.923 304.839 218.784C304.529 218.645 304.257 218.448 304.023 218.192C303.788 217.925 303.601 217.6 303.463 217.216C303.335 216.821 303.271 216.373 303.271 215.872ZM301.831 215.872C301.831 216.48 301.916 217.045 302.087 217.568C302.257 218.091 302.513 218.549 302.855 218.944C303.196 219.328 303.617 219.632 304.119 219.856C304.62 220.069 305.196 220.176 305.847 220.176C306.508 220.176 307.084 220.069 307.575 219.856C308.076 219.632 308.497 219.328 308.839 218.944C309.18 218.549 309.436 218.091 309.607 217.568C309.777 217.045 309.863 216.48 309.863 215.872C309.863 215.264 309.777 214.699 309.607 214.176C309.436 213.643 309.18 213.184 308.839 212.8C308.497 212.405 308.076 212.096 307.575 211.872C307.084 211.648 306.508 211.536 305.847 211.536C305.196 211.536 304.62 211.648 304.119 211.872C303.617 212.096 303.196 212.405 302.855 212.8C302.513 213.184 302.257 213.643 302.087 214.176C301.916 214.699 301.831 215.264 301.831 215.872ZM316.111 215.936C316.111 215.531 316.154 215.136 316.239 214.752C316.325 214.368 316.463 214.027 316.655 213.728C316.847 213.429 317.103 213.189 317.423 213.008C317.743 212.827 318.133 212.736 318.591 212.736C319.061 212.736 319.461 212.827 319.791 213.008C320.122 213.179 320.389 213.408 320.591 213.696C320.805 213.984 320.959 214.32 321.055 214.704C321.151 215.077 321.199 215.467 321.199 215.872C321.199 216.256 321.151 216.635 321.055 217.008C320.97 217.381 320.826 217.717 320.623 218.016C320.421 218.304 320.159 218.539 319.839 218.72C319.519 218.901 319.13 218.992 318.671 218.992C318.234 218.992 317.85 218.907 317.519 218.736C317.199 218.565 316.933 218.336 316.719 218.048C316.517 217.76 316.362 217.435 316.255 217.072C316.159 216.699 316.111 216.32 316.111 215.936ZM322.511 220V208.576H321.151V212.832H321.119C320.97 212.587 320.783 212.384 320.559 212.224C320.346 212.053 320.117 211.92 319.871 211.824C319.626 211.717 319.381 211.643 319.135 211.6C318.89 211.557 318.661 211.536 318.447 211.536C317.818 211.536 317.263 211.653 316.783 211.888C316.314 212.112 315.919 212.421 315.599 212.816C315.29 213.2 315.055 213.653 314.895 214.176C314.746 214.699 314.671 215.253 314.671 215.84C314.671 216.427 314.751 216.981 314.911 217.504C315.071 218.027 315.306 218.485 315.615 218.88C315.935 219.275 316.33 219.589 316.799 219.824C317.279 220.059 317.839 220.176 318.479 220.176C319.055 220.176 319.583 220.075 320.063 219.872C320.543 219.669 320.895 219.339 321.119 218.88H321.151V220H322.511ZM325.644 210.24V208.576H324.284V210.24H325.644ZM324.284 211.728V220H325.644V211.728H324.284ZM328.183 217.392H326.823C326.844 217.904 326.951 218.341 327.143 218.704C327.335 219.056 327.591 219.344 327.911 219.568C328.231 219.781 328.599 219.936 329.015 220.032C329.431 220.128 329.868 220.176 330.327 220.176C330.743 220.176 331.159 220.133 331.575 220.048C332.001 219.973 332.38 219.835 332.711 219.632C333.052 219.429 333.324 219.163 333.527 218.832C333.74 218.501 333.847 218.085 333.847 217.584C333.847 217.189 333.767 216.859 333.607 216.592C333.457 216.325 333.255 216.107 332.999 215.936C332.753 215.755 332.465 215.611 332.135 215.504C331.815 215.397 331.484 215.307 331.143 215.232C330.823 215.157 330.503 215.088 330.183 215.024C329.863 214.949 329.575 214.864 329.319 214.768C329.063 214.661 328.849 214.533 328.679 214.384C328.519 214.224 328.439 214.027 328.439 213.792C328.439 213.579 328.492 213.408 328.599 213.28C328.705 213.141 328.844 213.035 329.015 212.96C329.185 212.875 329.372 212.816 329.575 212.784C329.788 212.752 329.996 212.736 330.199 212.736C330.423 212.736 330.641 212.763 330.855 212.816C331.079 212.859 331.281 212.933 331.463 213.04C331.644 213.147 331.793 213.291 331.911 213.472C332.028 213.643 332.097 213.861 332.119 214.128H333.479C333.447 213.627 333.34 213.211 333.159 212.88C332.977 212.539 332.732 212.272 332.423 212.08C332.124 211.877 331.777 211.739 331.383 211.664C330.988 211.579 330.556 211.536 330.087 211.536C329.724 211.536 329.356 211.584 328.983 211.68C328.62 211.765 328.289 211.904 327.991 212.096C327.703 212.277 327.463 212.517 327.271 212.816C327.089 213.115 326.999 213.472 326.999 213.888C326.999 214.421 327.132 214.837 327.399 215.136C327.665 215.435 327.996 215.669 328.391 215.84C328.796 216 329.233 216.128 329.703 216.224C330.172 216.309 330.604 216.411 330.999 216.528C331.404 216.635 331.74 216.779 332.007 216.96C332.273 217.141 332.407 217.408 332.407 217.76C332.407 218.016 332.343 218.229 332.215 218.4C332.087 218.56 331.921 218.683 331.719 218.768C331.527 218.853 331.313 218.912 331.079 218.944C330.844 218.976 330.62 218.992 330.407 218.992C330.129 218.992 329.857 218.965 329.591 218.912C329.335 218.859 329.1 218.773 328.887 218.656C328.684 218.528 328.519 218.363 328.391 218.16C328.263 217.947 328.193 217.691 328.183 217.392ZM334.999 211.728V223.152H336.359V218.896H336.391C336.54 219.141 336.721 219.349 336.935 219.52C337.159 219.68 337.393 219.808 337.639 219.904C337.884 220 338.129 220.069 338.375 220.112C338.631 220.155 338.86 220.176 339.063 220.176C339.692 220.176 340.241 220.064 340.711 219.84C341.191 219.616 341.585 219.312 341.895 218.928C342.215 218.533 342.449 218.075 342.599 217.552C342.759 217.029 342.839 216.475 342.839 215.888C342.839 215.301 342.759 214.747 342.599 214.224C342.439 213.701 342.199 213.243 341.879 212.848C341.569 212.443 341.175 212.123 340.695 211.888C340.225 211.653 339.671 211.536 339.031 211.536C338.455 211.536 337.927 211.643 337.447 211.856C336.967 212.059 336.615 212.389 336.391 212.848H336.359V211.728H334.999ZM341.399 215.792C341.399 216.197 341.356 216.592 341.271 216.976C341.185 217.36 341.047 217.701 340.855 218C340.663 218.299 340.407 218.539 340.087 218.72C339.777 218.901 339.388 218.992 338.919 218.992C338.449 218.992 338.049 218.907 337.719 218.736C337.388 218.555 337.116 218.32 336.903 218.032C336.7 217.744 336.551 217.413 336.455 217.04C336.359 216.656 336.311 216.261 336.311 215.856C336.311 215.472 336.353 215.093 336.439 214.72C336.535 214.347 336.684 214.016 336.887 213.728C337.089 213.429 337.351 213.189 337.671 213.008C337.991 212.827 338.38 212.736 338.839 212.736C339.276 212.736 339.655 212.821 339.975 212.992C340.305 213.163 340.572 213.392 340.775 213.68C340.988 213.968 341.143 214.299 341.239 214.672C341.345 215.035 341.399 215.408 341.399 215.792ZM344.115 208.576V220H345.475V208.576H344.115ZM354.51 219.968C354.275 220.107 353.95 220.176 353.534 220.176C353.182 220.176 352.899 220.08 352.686 219.888C352.483 219.685 352.382 219.36 352.382 218.912C352.008 219.36 351.571 219.685 351.07 219.888C350.579 220.08 350.046 220.176 349.47 220.176C349.096 220.176 348.739 220.133 348.398 220.048C348.067 219.963 347.779 219.829 347.534 219.648C347.288 219.467 347.091 219.232 346.942 218.944C346.803 218.645 346.734 218.288 346.734 217.872C346.734 217.403 346.814 217.019 346.974 216.72C347.134 216.421 347.342 216.181 347.598 216C347.864 215.808 348.163 215.664 348.494 215.568C348.835 215.472 349.182 215.392 349.534 215.328C349.907 215.253 350.259 215.2 350.59 215.168C350.931 215.125 351.23 215.072 351.486 215.008C351.742 214.933 351.944 214.832 352.094 214.704C352.243 214.565 352.318 214.368 352.318 214.112C352.318 213.813 352.259 213.573 352.142 213.392C352.035 213.211 351.891 213.072 351.71 212.976C351.539 212.88 351.342 212.816 351.118 212.784C350.904 212.752 350.691 212.736 350.478 212.736C349.902 212.736 349.422 212.848 349.038 213.072C348.654 213.285 348.446 213.696 348.414 214.304H347.054C347.075 213.792 347.182 213.36 347.374 213.008C347.566 212.656 347.822 212.373 348.142 212.16C348.462 211.936 348.824 211.776 349.23 211.68C349.646 211.584 350.088 211.536 350.558 211.536C350.931 211.536 351.299 211.563 351.662 211.616C352.035 211.669 352.371 211.781 352.67 211.952C352.968 212.112 353.208 212.341 353.39 212.64C353.571 212.939 353.662 213.328 353.662 213.808V218.064C353.662 218.384 353.678 218.619 353.71 218.768C353.752 218.917 353.88 218.992 354.094 218.992C354.211 218.992 354.35 218.965 354.51 218.912V219.968ZM352.302 215.728C352.131 215.856 351.907 215.952 351.63 216.016C351.352 216.069 351.059 216.117 350.75 216.16C350.451 216.192 350.147 216.235 349.838 216.288C349.528 216.331 349.251 216.405 349.006 216.512C348.76 216.619 348.558 216.773 348.398 216.976C348.248 217.168 348.174 217.435 348.174 217.776C348.174 218 348.216 218.192 348.302 218.352C348.398 218.501 348.515 218.624 348.654 218.72C348.803 218.816 348.974 218.885 349.166 218.928C349.358 218.971 349.56 218.992 349.774 218.992C350.222 218.992 350.606 218.933 350.926 218.816C351.246 218.688 351.507 218.533 351.71 218.352C351.912 218.16 352.062 217.957 352.158 217.744C352.254 217.52 352.302 217.312 352.302 217.12V215.728ZM358.624 221.104C358.464 221.509 358.304 221.851 358.144 222.128C357.994 222.405 357.824 222.629 357.632 222.8C357.45 222.981 357.242 223.109 357.008 223.184C356.784 223.269 356.522 223.312 356.224 223.312C356.064 223.312 355.904 223.301 355.744 223.28C355.584 223.259 355.429 223.221 355.28 223.168V221.92C355.397 221.973 355.53 222.016 355.68 222.048C355.84 222.091 355.973 222.112 356.08 222.112C356.357 222.112 356.586 222.043 356.768 221.904C356.96 221.776 357.104 221.589 357.2 221.344L357.76 219.952L354.48 211.728H356.016L358.432 218.496H358.464L360.784 211.728H362.224L358.624 221.104Z" fill="#111111"/>
</svg>
