<svg width="172" height="152" viewBox="0 0 172 152" fill="none" xmlns="http://www.w3.org/2000/svg">
<circle cx="93.4799" cy="75.3139" r="71.103" fill="#F0F0F0"/>
<path d="M104.527 58.5391L171.218 77.3598L164.262 151.415L84.4785 131.367L104.527 58.5391Z" fill="#D2D2D2"/>
<path d="M170.808 76.9497L100.844 58.9473C97.4342 63.857 88.6512 76.5406 80.7956 87.9967C72.94 99.4528 59.2472 113.5 53.3828 119.092L135.212 143.231C136.712 142.413 143.068 136.44 156.488 119.092C169.908 101.744 171.626 83.7688 170.808 76.9497Z" fill="#F3F3F3" stroke="#CCCCCC" stroke-width="0.818293"/>
<circle cx="106.982" cy="78.1775" r="3.27317" fill="#C4C4C4"/>
<circle cx="97.1618" cy="95.363" r="3.27317" fill="#C4C4C4"/>
<circle cx="87.3435" cy="110.91" r="3.27317" fill="#C4C4C4"/>
<circle cx="41.2187" cy="41.0186" r="29.8586" transform="rotate(25.8347 41.2187 41.0186)" fill="#F0F0F0" stroke="#D2D2D2" stroke-width="0.818293"/>
<rect width="16.3659" height="2.45488" transform="matrix(1 0 0 -1 31.8086 49.6113)" fill="#C4C4C4"/>
<circle cx="24.0338" cy="36.108" r="4.50061" fill="#C4C4C4"/>
<circle cx="55.9459" cy="36.108" r="4.50061" fill="#C4C4C4"/>
</svg>
