<svg width="160" height="24" viewBox="0 0 160 24" fill="none" xmlns="http://www.w3.org/2000/svg">
<path fill-rule="evenodd" clip-rule="evenodd" d="M30.121 6C29.4636 6 28.8657 6.30464 28.5867 6.64897V10.9069L25.9152 14.5378V6.2838H23.3635L19.1381 13.4016V6.2838H17.6829L13.8554 7.23641V8.2307L15.9496 8.45397V17.1932H18.6602L22.7061 10.4207V17.1932H25.6762L29.7826 11.8C31.4173 9.71121 31.9948 8.85982 31.9948 7.84469C31.9948 6.83155 31.1979 6 30.121 6ZM39.131 15.2874C37.2378 15.2874 36.002 13.6649 36.002 11.2527C36.002 8.83938 36.9383 7.48091 38.7526 7.17628L38.733 10.0966C39.3505 10.4618 39.8489 10.6235 40.4468 10.6235C41.6231 10.6235 42.4005 9.87336 42.4005 8.79869C42.4005 7.13559 40.7258 6.0004 38.2736 6.0004C34.5867 6.0004 32.075 8.33231 32.075 11.7994C32.075 13.3613 32.593 14.7605 33.6288 15.8143C34.6462 16.8493 35.882 17.3355 37.6562 17.3355C39.291 17.3355 40.4663 17.0517 42.5 16.0981V14.1512C40.8253 14.9827 40.0079 15.2874 39.131 15.2874ZM5.8032 15.814C6.08216 15.8348 6.22066 15.8348 6.40111 15.8348C8.57428 15.8348 9.74962 14.4555 9.74962 11.8001C9.74962 9.56941 8.79277 8.3717 7.03804 8.3717C6.75631 8.3717 6.47458 8.40884 5.92378 8.48144C5.89106 8.48575 5.85738 8.49019 5.8227 8.49475L5.8032 15.814ZM5.8032 7.48062C7.77641 6.2839 8.45333 6.08147 9.45018 6.08147C11.7833 6.08147 13.4971 8.27148 13.4971 11.293C13.4971 14.8008 11.2049 17.1536 7.57645 17.1536C7.17849 17.1536 6.48012 17.1337 5.78271 17.0524L5.8032 20.58L7.55695 20.9859V22H0.680447V20.9859L2.25473 20.58V8.3717H0.5V7.31788L4.70686 6.01995H5.8032V7.48062Z" fill="#474747"/>
<path d="M49.268 11.488V7.856H52.308C52.6387 7.856 52.948 7.87733 53.236 7.92C53.5347 7.952 53.796 8.032 54.02 8.16C54.244 8.288 54.42 8.46933 54.548 8.704C54.676 8.93867 54.74 9.25867 54.74 9.664C54.74 10.272 54.548 10.7307 54.164 11.04C53.7907 11.3387 53.172 11.488 52.308 11.488H49.268ZM47.748 6.576V18H53.268C53.8333 18 54.3293 17.9093 54.756 17.728C55.1933 17.536 55.556 17.2907 55.844 16.992C56.1427 16.6827 56.3667 16.3307 56.516 15.936C56.6653 15.5413 56.74 15.136 56.74 14.72C56.74 14.016 56.5533 13.4187 56.18 12.928C55.8067 12.4373 55.268 12.1173 54.564 11.968V11.936C55.108 11.7227 55.524 11.3973 55.812 10.96C56.1107 10.512 56.26 9.984 56.26 9.376C56.26 8.8 56.1267 8.31467 55.86 7.92C55.604 7.52533 55.2893 7.216 54.916 6.992C54.7453 6.88533 54.5373 6.80533 54.292 6.752C54.0573 6.69867 53.8013 6.66133 53.524 6.64C53.2467 6.608 52.964 6.592 52.676 6.592C52.3987 6.58133 52.1373 6.576 51.892 6.576H47.748ZM49.268 16.72V12.768H52.74C53.06 12.768 53.3693 12.8 53.668 12.864C53.9667 12.9173 54.228 13.0187 54.452 13.168C54.6867 13.3067 54.8733 13.4987 55.012 13.744C55.1507 13.9893 55.22 14.2987 55.22 14.672C55.22 15.312 55.028 15.8133 54.644 16.176C54.2707 16.5387 53.748 16.72 53.076 16.72H49.268ZM59.0691 13.872C59.0691 13.3707 59.1331 12.928 59.2611 12.544C59.3998 12.1493 59.5865 11.8187 59.8211 11.552C60.0558 11.2853 60.3278 11.0827 60.6371 10.944C60.9571 10.8053 61.2931 10.736 61.6451 10.736C61.9971 10.736 62.3278 10.8053 62.6371 10.944C62.9571 11.0827 63.2345 11.2853 63.4691 11.552C63.7038 11.8187 63.8851 12.1493 64.0131 12.544C64.1518 12.928 64.2211 13.3707 64.2211 13.872C64.2211 14.3733 64.1518 14.8213 64.0131 15.216C63.8851 15.6 63.7038 15.9253 63.4691 16.192C63.2345 16.448 62.9571 16.6453 62.6371 16.784C62.3278 16.9227 61.9971 16.992 61.6451 16.992C61.2931 16.992 60.9571 16.9227 60.6371 16.784C60.3278 16.6453 60.0558 16.448 59.8211 16.192C59.5865 15.9253 59.3998 15.6 59.2611 15.216C59.1331 14.8213 59.0691 14.3733 59.0691 13.872ZM57.6291 13.872C57.6291 14.48 57.7145 15.0453 57.8851 15.568C58.0558 16.0907 58.3118 16.5493 58.6531 16.944C58.9945 17.328 59.4158 17.632 59.9171 17.856C60.4185 18.0693 60.9945 18.176 61.6451 18.176C62.3065 18.176 62.8825 18.0693 63.3731 17.856C63.8745 17.632 64.2958 17.328 64.6371 16.944C64.9785 16.5493 65.2345 16.0907 65.4051 15.568C65.5758 15.0453 65.6611 14.48 65.6611 13.872C65.6611 13.264 65.5758 12.6987 65.4051 12.176C65.2345 11.6427 64.9785 11.184 64.6371 10.8C64.2958 10.4053 63.8745 10.096 63.3731 9.872C62.8825 9.648 62.3065 9.536 61.6451 9.536C60.9945 9.536 60.4185 9.648 59.9171 9.872C59.4158 10.096 58.9945 10.4053 58.6531 10.8C58.3118 11.184 58.0558 11.6427 57.8851 12.176C57.7145 12.6987 57.6291 13.264 57.6291 13.872ZM67.8566 13.872C67.8566 13.3707 67.9206 12.928 68.0486 12.544C68.1873 12.1493 68.374 11.8187 68.6086 11.552C68.8433 11.2853 69.1153 11.0827 69.4246 10.944C69.7446 10.8053 70.0806 10.736 70.4326 10.736C70.7846 10.736 71.1153 10.8053 71.4246 10.944C71.7446 11.0827 72.022 11.2853 72.2566 11.552C72.4913 11.8187 72.6726 12.1493 72.8006 12.544C72.9393 12.928 73.0086 13.3707 73.0086 13.872C73.0086 14.3733 72.9393 14.8213 72.8006 15.216C72.6726 15.6 72.4913 15.9253 72.2566 16.192C72.022 16.448 71.7446 16.6453 71.4246 16.784C71.1153 16.9227 70.7846 16.992 70.4326 16.992C70.0806 16.992 69.7446 16.9227 69.4246 16.784C69.1153 16.6453 68.8433 16.448 68.6086 16.192C68.374 15.9253 68.1873 15.6 68.0486 15.216C67.9206 14.8213 67.8566 14.3733 67.8566 13.872ZM66.4166 13.872C66.4166 14.48 66.502 15.0453 66.6726 15.568C66.8433 16.0907 67.0993 16.5493 67.4406 16.944C67.782 17.328 68.2033 17.632 68.7046 17.856C69.206 18.0693 69.782 18.176 70.4326 18.176C71.094 18.176 71.67 18.0693 72.1606 17.856C72.662 17.632 73.0833 17.328 73.4246 16.944C73.766 16.5493 74.022 16.0907 74.1926 15.568C74.3633 15.0453 74.4486 14.48 74.4486 13.872C74.4486 13.264 74.3633 12.6987 74.1926 12.176C74.022 11.6427 73.766 11.184 73.4246 10.8C73.0833 10.4053 72.662 10.096 72.1606 9.872C71.67 9.648 71.094 9.536 70.4326 9.536C69.782 9.536 69.206 9.648 68.7046 9.872C68.2033 10.096 67.782 10.4053 67.4406 10.8C67.0993 11.184 66.8433 11.6427 66.6726 12.176C66.502 12.6987 66.4166 13.264 66.4166 13.872ZM75.7321 6.576V18H77.0921V14.864L78.3721 13.68L81.2041 18H82.9321L79.4121 12.736L82.6921 9.728H80.8681L77.0921 13.344V6.576H75.7321ZM84.989 8.24V6.576H83.629V8.24H84.989ZM83.629 9.728V18H84.989V9.728H83.629ZM86.6959 9.728V18H88.0559V13.328C88.0559 12.9547 88.1039 12.6133 88.1999 12.304C88.3065 11.984 88.4612 11.7067 88.6639 11.472C88.8665 11.2373 89.1172 11.056 89.4159 10.928C89.7252 10.8 90.0879 10.736 90.5039 10.736C91.0265 10.736 91.4372 10.8853 91.7359 11.184C92.0345 11.4827 92.1839 11.888 92.1839 12.4V18H93.5439V12.56C93.5439 12.112 93.4959 11.7067 93.3999 11.344C93.3145 10.9707 93.1599 10.6507 92.9359 10.384C92.7119 10.1173 92.4185 9.90933 92.0559 9.76C91.6932 9.61067 91.2399 9.536 90.6959 9.536C89.4692 9.536 88.5732 10.0373 88.0079 11.04H87.9759V9.728H86.6959ZM102.322 17.296V9.728H101.042V10.912H101.026C100.781 10.4533 100.44 10.112 100.002 9.888C99.5652 9.65333 99.0852 9.536 98.5625 9.536C97.8478 9.536 97.2452 9.67467 96.7545 9.952C96.2638 10.2187 95.8692 10.5653 95.5705 10.992C95.2718 11.408 95.0585 11.8773 94.9305 12.4C94.8025 12.912 94.7385 13.4133 94.7385 13.904C94.7385 14.4693 94.8132 15.008 94.9625 15.52C95.1225 16.0213 95.3572 16.464 95.6665 16.848C95.9758 17.2213 96.3598 17.52 96.8185 17.744C97.2772 17.968 97.8158 18.08 98.4345 18.08C98.9678 18.08 99.4692 17.9627 99.9385 17.728C100.418 17.4827 100.776 17.104 101.01 16.592H101.042V17.136C101.042 17.5947 100.994 18.016 100.898 18.4C100.813 18.784 100.669 19.1093 100.466 19.376C100.264 19.6533 100.008 19.8667 99.6985 20.016C99.3892 20.176 99.0105 20.256 98.5625 20.256C98.3385 20.256 98.1038 20.2293 97.8585 20.176C97.6132 20.1333 97.3838 20.0587 97.1705 19.952C96.9678 19.8453 96.7918 19.7067 96.6425 19.536C96.5038 19.3653 96.4292 19.1573 96.4185 18.912H95.0585C95.0798 19.36 95.1972 19.7387 95.4105 20.048C95.6238 20.3573 95.8905 20.608 96.2105 20.8C96.5412 20.992 96.9038 21.1307 97.2985 21.216C97.7038 21.3013 98.0985 21.344 98.4825 21.344C99.8052 21.344 100.776 21.008 101.394 20.336C102.013 19.664 102.322 18.6507 102.322 17.296ZM98.5145 16.896C98.0665 16.896 97.6932 16.8053 97.3945 16.624C97.0958 16.432 96.8558 16.1867 96.6745 15.888C96.4932 15.5787 96.3652 15.2373 96.2905 14.864C96.2158 14.4907 96.1785 14.1173 96.1785 13.744C96.1785 13.3493 96.2212 12.9707 96.3065 12.608C96.4025 12.2453 96.5465 11.9253 96.7385 11.648C96.9412 11.3707 97.1972 11.152 97.5065 10.992C97.8158 10.8213 98.1892 10.736 98.6265 10.736C99.0532 10.736 99.4158 10.8213 99.7145 10.992C100.013 11.1627 100.253 11.392 100.434 11.68C100.626 11.9573 100.765 12.272 100.85 12.624C100.936 12.976 100.978 13.3333 100.978 13.696C100.978 14.08 100.93 14.464 100.834 14.848C100.749 15.232 100.61 15.5787 100.418 15.888C100.226 16.1867 99.9705 16.432 99.6505 16.624C99.3412 16.8053 98.9625 16.896 98.5145 16.896ZM114.859 9.92H116.299C116.278 9.29067 116.155 8.752 115.931 8.304C115.718 7.84533 115.419 7.46667 115.035 7.168C114.662 6.86933 114.224 6.65067 113.723 6.512C113.222 6.37333 112.678 6.304 112.091 6.304C111.568 6.304 111.056 6.37333 110.555 6.512C110.064 6.64 109.622 6.84267 109.227 7.12C108.843 7.38667 108.534 7.73333 108.299 8.16C108.064 8.576 107.947 9.072 107.947 9.648C107.947 10.1707 108.048 10.608 108.251 10.96C108.464 11.3013 108.742 11.584 109.083 11.808C109.435 12.0213 109.83 12.1973 110.267 12.336C110.704 12.464 111.147 12.5813 111.595 12.688C112.054 12.784 112.502 12.88 112.939 12.976C113.376 13.072 113.766 13.2 114.107 13.36C114.459 13.5093 114.736 13.7067 114.939 13.952C115.152 14.1973 115.259 14.5173 115.259 14.912C115.259 15.328 115.174 15.6693 115.003 15.936C114.832 16.2027 114.608 16.416 114.331 16.576C114.054 16.7253 113.739 16.832 113.387 16.896C113.046 16.96 112.704 16.992 112.363 16.992C111.936 16.992 111.52 16.9387 111.115 16.832C110.71 16.7253 110.352 16.56 110.043 16.336C109.744 16.112 109.499 15.8293 109.307 15.488C109.126 15.136 109.035 14.72 109.035 14.24H107.595C107.595 14.9333 107.718 15.536 107.963 16.048C108.219 16.5493 108.56 16.9653 108.987 17.296C109.424 17.616 109.926 17.856 110.491 18.016C111.067 18.176 111.675 18.256 112.315 18.256C112.838 18.256 113.36 18.192 113.883 18.064C114.416 17.9467 114.896 17.7547 115.323 17.488C115.75 17.2107 116.096 16.8587 116.363 16.432C116.64 15.9947 116.779 15.472 116.779 14.864C116.779 14.2987 116.672 13.8293 116.459 13.456C116.256 13.0827 115.979 12.7733 115.627 12.528C115.286 12.2827 114.896 12.0907 114.459 11.952C114.022 11.8027 113.574 11.6747 113.115 11.568C112.667 11.4613 112.224 11.3653 111.787 11.28C111.35 11.184 110.955 11.0667 110.603 10.928C110.262 10.7893 109.984 10.6133 109.771 10.4C109.568 10.176 109.467 9.888 109.467 9.536C109.467 9.16267 109.536 8.85333 109.675 8.608C109.824 8.352 110.016 8.14933 110.251 8C110.496 7.85067 110.774 7.744 111.083 7.68C111.392 7.616 111.707 7.584 112.027 7.584C112.816 7.584 113.462 7.77067 113.963 8.144C114.475 8.50667 114.774 9.09867 114.859 9.92ZM121.25 19.104C121.09 19.5093 120.93 19.8507 120.77 20.128C120.621 20.4053 120.45 20.6293 120.258 20.8C120.077 20.9813 119.869 21.1093 119.634 21.184C119.41 21.2693 119.149 21.312 118.85 21.312C118.69 21.312 118.53 21.3013 118.37 21.28C118.21 21.2587 118.055 21.2213 117.906 21.168V19.92C118.023 19.9733 118.157 20.016 118.306 20.048C118.466 20.0907 118.599 20.112 118.706 20.112C118.983 20.112 119.213 20.0427 119.394 19.904C119.586 19.776 119.73 19.5893 119.826 19.344L120.386 17.952L117.106 9.728H118.642L121.058 16.496H121.09L123.41 9.728H124.85L121.25 19.104ZM126.434 15.392H125.074C125.095 15.904 125.202 16.3413 125.394 16.704C125.586 17.056 125.842 17.344 126.162 17.568C126.482 17.7813 126.85 17.936 127.266 18.032C127.682 18.128 128.119 18.176 128.578 18.176C128.994 18.176 129.41 18.1333 129.826 18.048C130.253 17.9733 130.631 17.8347 130.962 17.632C131.303 17.4293 131.575 17.1627 131.778 16.832C131.991 16.5013 132.098 16.0853 132.098 15.584C132.098 15.1893 132.018 14.8587 131.858 14.592C131.709 14.3253 131.506 14.1067 131.25 13.936C131.005 13.7547 130.717 13.6107 130.386 13.504C130.066 13.3973 129.735 13.3067 129.394 13.232C129.074 13.1573 128.754 13.088 128.434 13.024C128.114 12.9493 127.826 12.864 127.57 12.768C127.314 12.6613 127.101 12.5333 126.93 12.384C126.77 12.224 126.69 12.0267 126.69 11.792C126.69 11.5787 126.743 11.408 126.85 11.28C126.957 11.1413 127.095 11.0347 127.266 10.96C127.437 10.8747 127.623 10.816 127.826 10.784C128.039 10.752 128.247 10.736 128.45 10.736C128.674 10.736 128.893 10.7627 129.106 10.816C129.33 10.8587 129.533 10.9333 129.714 11.04C129.895 11.1467 130.045 11.2907 130.162 11.472C130.279 11.6427 130.349 11.8613 130.37 12.128H131.73C131.698 11.6267 131.591 11.2107 131.41 10.88C131.229 10.5387 130.983 10.272 130.674 10.08C130.375 9.87733 130.029 9.73867 129.634 9.664C129.239 9.57867 128.807 9.536 128.338 9.536C127.975 9.536 127.607 9.584 127.234 9.68C126.871 9.76533 126.541 9.904 126.242 10.096C125.954 10.2773 125.714 10.5173 125.522 10.816C125.341 11.1147 125.25 11.472 125.25 11.888C125.25 12.4213 125.383 12.8373 125.65 13.136C125.917 13.4347 126.247 13.6693 126.642 13.84C127.047 14 127.485 14.128 127.954 14.224C128.423 14.3093 128.855 14.4107 129.25 14.528C129.655 14.6347 129.991 14.7787 130.258 14.96C130.525 15.1413 130.658 15.408 130.658 15.76C130.658 16.016 130.594 16.2293 130.466 16.4C130.338 16.56 130.173 16.6827 129.97 16.768C129.778 16.8533 129.565 16.912 129.33 16.944C129.095 16.976 128.871 16.992 128.658 16.992C128.381 16.992 128.109 16.9653 127.842 16.912C127.586 16.8587 127.351 16.7733 127.138 16.656C126.935 16.528 126.77 16.3627 126.642 16.16C126.514 15.9467 126.445 15.6907 126.434 15.392ZM135.09 9.728V7.248H133.73V9.728H132.322V10.928H133.73V16.192C133.73 16.576 133.767 16.8853 133.842 17.12C133.917 17.3547 134.029 17.536 134.178 17.664C134.338 17.792 134.541 17.8827 134.786 17.936C135.042 17.9787 135.346 18 135.698 18H136.738V16.8H136.114C135.901 16.8 135.725 16.7947 135.586 16.784C135.458 16.7627 135.357 16.7253 135.282 16.672C135.207 16.6187 135.154 16.544 135.122 16.448C135.101 16.352 135.09 16.224 135.09 16.064V10.928H136.738V9.728H135.09ZM143.593 13.072H138.841C138.862 12.752 138.932 12.4533 139.049 12.176C139.166 11.888 139.326 11.6373 139.529 11.424C139.732 11.2107 139.972 11.0453 140.249 10.928C140.537 10.8 140.857 10.736 141.209 10.736C141.55 10.736 141.86 10.8 142.137 10.928C142.425 11.0453 142.67 11.2107 142.873 11.424C143.086 11.6267 143.252 11.872 143.369 12.16C143.497 12.448 143.572 12.752 143.593 13.072ZM144.905 15.376H143.561C143.444 15.92 143.198 16.3253 142.825 16.592C142.462 16.8587 141.993 16.992 141.417 16.992C140.969 16.992 140.58 16.9173 140.249 16.768C139.918 16.6187 139.646 16.4213 139.433 16.176C139.22 15.92 139.065 15.632 138.969 15.312C138.873 14.9813 138.83 14.6347 138.841 14.272H145.033C145.054 13.7707 145.006 13.2427 144.889 12.688C144.782 12.1333 144.58 11.6213 144.281 11.152C143.993 10.6827 143.604 10.2987 143.113 10C142.633 9.69067 142.025 9.536 141.289 9.536C140.724 9.536 140.201 9.64267 139.721 9.856C139.252 10.0693 138.841 10.368 138.489 10.752C138.148 11.136 137.881 11.5893 137.689 12.112C137.497 12.6347 137.401 13.2107 137.401 13.84C137.422 14.4693 137.513 15.0507 137.673 15.584C137.844 16.1173 138.094 16.576 138.425 16.96C138.756 17.344 139.161 17.6427 139.641 17.856C140.132 18.0693 140.708 18.176 141.369 18.176C142.308 18.176 143.086 17.9413 143.705 17.472C144.324 17.0027 144.724 16.304 144.905 15.376ZM146.043 9.728V18H147.403V12.848C147.403 12.688 147.44 12.4907 147.515 12.256C147.6 12.0107 147.728 11.776 147.899 11.552C148.08 11.328 148.309 11.136 148.587 10.976C148.875 10.816 149.216 10.736 149.611 10.736C149.92 10.736 150.171 10.784 150.363 10.88C150.565 10.9653 150.725 11.0933 150.843 11.264C150.96 11.424 151.04 11.616 151.083 11.84C151.136 12.064 151.163 12.3093 151.163 12.576V18H152.523V12.848C152.523 12.208 152.715 11.696 153.099 11.312C153.483 10.928 154.011 10.736 154.683 10.736C155.013 10.736 155.28 10.784 155.483 10.88C155.696 10.976 155.861 11.1093 155.979 11.28C156.096 11.44 156.176 11.632 156.219 11.856C156.261 12.08 156.283 12.32 156.283 12.576V18H157.643V11.936C157.643 11.5093 157.573 11.1467 157.435 10.848C157.307 10.5387 157.12 10.288 156.875 10.096C156.64 9.904 156.352 9.76533 156.011 9.68C155.68 9.584 155.307 9.536 154.891 9.536C154.347 9.536 153.845 9.65867 153.387 9.904C152.939 10.1493 152.576 10.496 152.299 10.944C152.128 10.432 151.835 10.0693 151.419 9.856C151.003 9.64267 150.539 9.536 150.027 9.536C148.864 9.536 147.973 10.0053 147.355 10.944H147.323V9.728H146.043Z" fill="#252525"/>
</svg>
