<svg width="80" height="87" viewBox="0 0 80 87" fill="none" xmlns="http://www.w3.org/2000/svg">
<rect width="80" height="87" rx="12" fill="#191919"/>
<path d="M22.4217 67.1063C22.4217 67.1063 25.5517 72.1432 28.605 72.1432C31.7833 72.1505 33.025 70.2202 34.8383 67.8295L43.6383 52.5139C44.129 51.7207 44.7793 51.0594 45.5399 50.5802C46.3005 50.101 47.1515 49.8164 48.0283 49.748H61.4833C64.0917 49.748 63.86 54.997 61.25 54.997H50.0433C49.1863 55.0233 48.3525 55.3064 47.6341 55.8153C46.9156 56.3241 46.3403 57.0389 45.9717 57.8807L42.6717 63.7677H52.4033C55.3283 63.7677 57.2383 72.1577 61.275 72.1577H69.7133L64.89 63.6408C67.0654 63.0413 68.9948 61.6701 70.3731 59.7441C71.7514 57.8181 72.4998 55.4474 72.5 53.0069C72.5 44.6204 67.045 40.9846 64.225 40.9846H42.28C41.2532 41.0751 40.2635 41.4428 39.4003 42.0542C38.5371 42.6657 37.8278 43.5016 37.3367 44.4863L28.8667 59.7276L20.4567 44.4809C20.4567 44.4809 18.32 40.9465 15.4667 40.9465L7.5 40.9429L22.4217 67.1063Z" stroke="white" stroke-linecap="round" stroke-linejoin="round"/>
<path d="M12.144 20.728H14.128L16.224 27.08H16.256L18.272 20.728H20.16L17.2 29H15.152L12.144 20.728ZM20.9049 17.576H22.7289V19.304H20.9049V17.576ZM20.9049 20.728H22.7289V29H20.9049V20.728ZM29.9963 24.136C29.9749 23.848 29.9109 23.5707 29.8043 23.304C29.7083 23.0373 29.5696 22.808 29.3882 22.616C29.2176 22.4133 29.0043 22.2533 28.7483 22.136C28.5029 22.008 28.2256 21.944 27.9163 21.944C27.5963 21.944 27.3029 22.0027 27.0362 22.12C26.7802 22.2267 26.5563 22.3813 26.3642 22.584C26.1829 22.776 26.0336 23.0053 25.9162 23.272C25.8096 23.5387 25.7509 23.8267 25.7402 24.136H29.9963ZM25.7402 25.336C25.7402 25.656 25.7829 25.9653 25.8682 26.264C25.9642 26.5627 26.1029 26.824 26.2843 27.048C26.4656 27.272 26.6949 27.4533 26.9722 27.592C27.2496 27.72 27.5802 27.784 27.9643 27.784C28.4976 27.784 28.9243 27.672 29.2443 27.448C29.5749 27.2133 29.8203 26.8667 29.9803 26.408H31.7083C31.6123 26.856 31.4469 27.256 31.2123 27.608C30.9776 27.96 30.6949 28.2587 30.3643 28.504C30.0336 28.7387 29.6603 28.9147 29.2443 29.032C28.8389 29.16 28.4123 29.224 27.9643 29.224C27.3136 29.224 26.7376 29.1173 26.2362 28.904C25.7349 28.6907 25.3082 28.392 24.9562 28.008C24.6149 27.624 24.3536 27.1653 24.1722 26.632C24.0016 26.0987 23.9162 25.512 23.9162 24.872C23.9162 24.2853 24.0069 23.7307 24.1882 23.208C24.3802 22.6747 24.6469 22.2107 24.9882 21.816C25.3402 21.4107 25.7616 21.0907 26.2522 20.856C26.7429 20.6213 27.2976 20.504 27.9163 20.504C28.5669 20.504 29.1483 20.6427 29.6603 20.92C30.1829 21.1867 30.6149 21.544 30.9563 21.992C31.2976 22.44 31.5429 22.9573 31.6923 23.544C31.8523 24.12 31.8949 24.7173 31.8203 25.336H25.7402ZM32.0549 20.728H33.9909L35.6069 26.904H35.6389L37.1909 20.728H39.0309L40.5189 26.904H40.5509L42.2309 20.728H44.0869L41.4949 29H39.6229L38.0869 22.856H38.0549L36.5349 29H34.6149L32.0549 20.728ZM48.9611 17.576H50.7851V19.304H48.9611V17.576ZM48.9611 20.728H50.7851V29H48.9611V20.728ZM52.3725 20.728H54.1005V21.944L54.1325 21.976C54.4098 21.5173 54.7725 21.16 55.2205 20.904C55.6685 20.6373 56.1645 20.504 56.7085 20.504C57.6152 20.504 58.3298 20.7387 58.8525 21.208C59.3752 21.6773 59.6365 22.3813 59.6365 23.32V29H57.8125V23.8C57.7912 23.1493 57.6525 22.68 57.3965 22.392C57.1405 22.0933 56.7405 21.944 56.1965 21.944C55.8872 21.944 55.6098 22.0027 55.3645 22.12C55.1192 22.2267 54.9112 22.3813 54.7405 22.584C54.5698 22.776 54.4365 23.0053 54.3405 23.272C54.2445 23.5387 54.1965 23.8213 54.1965 24.12V29H52.3725V20.728Z" fill="white"/>
</svg>
