<svg width="91" height="52" viewBox="0 0 91 52" fill="none" xmlns="http://www.w3.org/2000/svg">
<g clip-path="url(#clip0_125_12384)">
<rect x="0.5" y="0.5" width="90" height="51" rx="25.5" stroke="#111111"/>
<path d="M17.3333 30H30.6666M17.3333 20H30.6666H17.3333ZM17.3333 25H23.9999H17.3333Z" stroke="#111111" stroke-width="2" stroke-linecap="round" stroke-linejoin="round"/>
<circle cx="63" cy="26" r="20" fill="#FDAB8D"/>
<path d="M56.5033 20.576H58.6312L63.0312 32H60.8872L59.8153 28.976H55.2552L54.1832 32H52.1192L56.5033 20.576ZM55.7992 27.456H59.2873L57.5753 22.544H57.5273L55.7992 27.456ZM65.7191 25.36H68.9831C69.4631 25.36 69.8631 25.2267 70.1831 24.96C70.5031 24.6827 70.6631 24.288 70.6631 23.776C70.6631 23.2 70.5191 22.7947 70.2311 22.56C69.9431 22.3253 69.5271 22.208 68.9831 22.208H65.7191V25.36ZM63.7191 20.576H69.2711C70.2951 20.576 71.1165 20.8107 71.7351 21.28C72.3538 21.7493 72.6631 22.4587 72.6631 23.408C72.6631 23.984 72.5191 24.48 72.2311 24.896C71.9538 25.3013 71.5538 25.616 71.0311 25.84V25.872C71.7351 26.0213 72.2685 26.3573 72.6311 26.88C72.9938 27.392 73.1751 28.0373 73.1751 28.816C73.1751 29.264 73.0951 29.6853 72.9351 30.08C72.7751 30.464 72.5245 30.8 72.1831 31.088C71.8418 31.3653 71.4045 31.5893 70.8711 31.76C70.3378 31.92 69.7031 32 68.9671 32H63.7191V20.576ZM65.7191 30.368H69.2551C69.8631 30.368 70.3325 30.2133 70.6631 29.904C71.0045 29.584 71.1751 29.136 71.1751 28.56C71.1751 27.9947 71.0045 27.5627 70.6631 27.264C70.3325 26.9547 69.8631 26.8 69.2551 26.8H65.7191V30.368Z" fill="#111111"/>
</g>
<defs>
<clipPath id="clip0_125_12384">
<rect width="91" height="52" fill="white"/>
</clipPath>
</defs>
</svg>
