<svg width="22" height="22" viewBox="0 0 22 22" fill="none" xmlns="http://www.w3.org/2000/svg">
<path fill-rule="evenodd" clip-rule="evenodd" d="M4 0C1.79086 0 0 1.79086 0 4V18C0 20.2091 1.79086 22 4 22H18C20.2091 22 22 20.2091 22 18V4C22 1.79086 20.2091 0 18 0H4ZM18 2H4C2.89543 2 2 2.89543 2 4V18C2 19.1046 2.89543 20 4 20H18C19.1046 20 20 19.1046 20 18V4C20 2.89543 19.1046 2 18 2ZM5 11.071L9.2426 15.3137L16.3137 8.24262L14.8995 6.8284L9.2426 12.4853L6.41421 9.6568L5 11.071Z" fill="#474747"/>
</svg>
