<svg width="48" height="48" viewBox="0 0 48 48" fill="none" xmlns="http://www.w3.org/2000/svg">
<path fill-rule="evenodd" clip-rule="evenodd" d="M24 0C37.256 0 48 10.746 48 24C48 37.254 37.256 48 24 48C10.746 48 0 37.254 0 24C0 10.746 10.746 0 24 0ZM24 45C35.58 45 45 35.58 45 24C45 12.42 35.58 3 24 3C12.42 3 3 12.42 3 24C3 35.58 12.42 45 24 45ZM33.6229 16.5009L31.5009 14.3789L24.0009 21.8789L16.5009 14.3789L14.3789 16.5009L21.8789 24.0009L14.3789 31.5009L16.5009 33.6209L24.0009 26.1209L31.5009 33.6209L33.6229 31.5009L26.1229 24.0009L33.6229 16.5009Z" fill="#474747"/>
</svg>
