<svg width="22" height="24" viewBox="0 0 22 24" fill="none" xmlns="http://www.w3.org/2000/svg">
<path fill-rule="evenodd" clip-rule="evenodd" d="M6.75006 1.50001H15.75C16.165 1.50001 16.5 1.165 16.5 0.750003C16.5 0.335001 16.165 0 15.75 0H6.75006C6.33506 0 6.00006 0.335001 6.00006 0.750003C6.00006 1.165 6.33506 1.50001 6.75006 1.50001ZM1.50006 3H21C21.415 3 21.75 3.335 21.75 3.75C21.75 4.165 21.415 4.50001 21 4.50001H1.50006C1.08506 4.50001 0.750061 4.165 0.750061 3.75C0.750061 3.335 1.08506 3 1.50006 3ZM18.4764 20.784L18.7474 7.55593H20.2474L19.9764 20.815C19.9404 22.585 18.4944 24 16.7244 24H5.88738C4.11738 24 2.67237 22.585 2.63637 20.815L2.36437 7.55593H3.86437L4.13538 20.784C4.15538 21.73 4.94138 22.5 5.88738 22.5H16.7244C17.6714 22.5 18.4574 21.73 18.4764 20.784Z" fill="#C52A1A"/>
</svg>
