<svg width="192" height="33" viewBox="0 0 192 33" fill="none" xmlns="http://www.w3.org/2000/svg">
<rect x="0.809998" y="4.5" width="191" height="24" rx="12" fill="#C52A1A"/>
<path d="M13.722 12.932H19.89V14.228H15.222V16.472H19.542V17.696H15.222V20.204H19.974V21.5H13.722V12.932ZM26.5326 21.5H25.2366V20.66H25.2126C25.0286 21.02 24.7606 21.28 24.4086 21.44C24.0566 21.592 23.6846 21.668 23.2926 21.668C22.8046 21.668 22.3766 21.584 22.0086 21.416C21.6486 21.24 21.3486 21.004 21.1086 20.708C20.8686 20.412 20.6886 20.064 20.5686 19.664C20.4486 19.256 20.3886 18.82 20.3886 18.356C20.3886 17.796 20.4646 17.312 20.6166 16.904C20.7686 16.496 20.9686 16.16 21.2166 15.896C21.4726 15.632 21.7606 15.44 22.0806 15.32C22.4086 15.192 22.7406 15.128 23.0766 15.128C23.2686 15.128 23.4646 15.148 23.6646 15.188C23.8646 15.22 24.0566 15.276 24.2406 15.356C24.4246 15.436 24.5926 15.54 24.7446 15.668C24.9046 15.788 25.0366 15.932 25.1406 16.1H25.1646V12.932H26.5326V21.5ZM21.7566 18.464C21.7566 18.728 21.7886 18.988 21.8526 19.244C21.9246 19.5 22.0286 19.728 22.1646 19.928C22.3086 20.128 22.4886 20.288 22.7046 20.408C22.9206 20.528 23.1766 20.588 23.4726 20.588C23.7766 20.588 24.0366 20.524 24.2526 20.396C24.4766 20.268 24.6566 20.1 24.7926 19.892C24.9366 19.684 25.0406 19.452 25.1046 19.196C25.1766 18.932 25.2126 18.664 25.2126 18.392C25.2126 17.704 25.0566 17.168 24.7446 16.784C24.4406 16.4 24.0246 16.208 23.4966 16.208C23.1766 16.208 22.9046 16.276 22.6806 16.412C22.4646 16.54 22.2846 16.712 22.1406 16.928C22.0046 17.136 21.9046 17.376 21.8406 17.648C21.7846 17.912 21.7566 18.184 21.7566 18.464ZM27.6605 12.932H29.0285V14.228H27.6605V12.932ZM27.6605 15.296H29.0285V21.5H27.6605V15.296ZM29.4951 15.296H30.5271V13.436H31.8951V15.296H33.1311V16.316H31.8951V19.628C31.8951 19.772 31.8991 19.896 31.9071 20C31.9231 20.104 31.9511 20.192 31.9911 20.264C32.0391 20.336 32.1071 20.392 32.1951 20.432C32.2831 20.464 32.4031 20.48 32.5551 20.48C32.6511 20.48 32.7471 20.48 32.8431 20.48C32.9391 20.472 33.0351 20.456 33.1311 20.432V21.488C32.9791 21.504 32.8311 21.52 32.6871 21.536C32.5431 21.552 32.3951 21.56 32.2431 21.56C31.8831 21.56 31.5911 21.528 31.3671 21.464C31.1511 21.392 30.9791 21.292 30.8511 21.164C30.7311 21.028 30.6471 20.86 30.5991 20.66C30.5591 20.46 30.5351 20.232 30.5271 19.976V16.316H29.4951V15.296ZM36.691 12.932H38.059V16.1H38.083C38.179 15.948 38.295 15.812 38.431 15.692C38.567 15.572 38.715 15.472 38.875 15.392C39.043 15.304 39.215 15.24 39.391 15.2C39.575 15.152 39.755 15.128 39.931 15.128C40.419 15.128 40.843 15.216 41.203 15.392C41.571 15.56 41.875 15.796 42.115 16.1C42.355 16.396 42.535 16.744 42.655 17.144C42.775 17.544 42.835 17.972 42.835 18.428C42.835 18.844 42.779 19.248 42.667 19.64C42.563 20.032 42.399 20.38 42.175 20.684C41.959 20.98 41.683 21.22 41.347 21.404C41.011 21.58 40.615 21.668 40.159 21.668C39.951 21.668 39.739 21.652 39.523 21.62C39.315 21.596 39.115 21.544 38.923 21.464C38.731 21.384 38.555 21.28 38.395 21.152C38.243 21.024 38.115 20.856 38.011 20.648H37.987V21.5H36.691V12.932ZM41.467 18.404C41.467 18.124 41.431 17.852 41.359 17.588C41.287 17.324 41.179 17.092 41.035 16.892C40.891 16.684 40.711 16.52 40.495 16.4C40.279 16.272 40.031 16.208 39.751 16.208C39.175 16.208 38.739 16.408 38.443 16.808C38.155 17.208 38.011 17.74 38.011 18.404C38.011 18.716 38.047 19.008 38.119 19.28C38.199 19.544 38.315 19.772 38.467 19.964C38.619 20.156 38.799 20.308 39.007 20.42C39.223 20.532 39.471 20.588 39.751 20.588C40.063 20.588 40.327 20.524 40.543 20.396C40.759 20.268 40.935 20.104 41.071 19.904C41.215 19.696 41.315 19.464 41.371 19.208C41.435 18.944 41.467 18.676 41.467 18.404ZM46.4349 21.668C45.9389 21.668 45.4949 21.588 45.1029 21.428C44.7189 21.26 44.3909 21.032 44.1189 20.744C43.8549 20.456 43.6509 20.112 43.5069 19.712C43.3709 19.312 43.3029 18.872 43.3029 18.392C43.3029 17.92 43.3709 17.484 43.5069 17.084C43.6509 16.684 43.8549 16.34 44.1189 16.052C44.3909 15.764 44.7189 15.54 45.1029 15.38C45.4949 15.212 45.9389 15.128 46.4349 15.128C46.9309 15.128 47.3709 15.212 47.7549 15.38C48.1469 15.54 48.4749 15.764 48.7389 16.052C49.0109 16.34 49.2149 16.684 49.3509 17.084C49.4949 17.484 49.5669 17.92 49.5669 18.392C49.5669 18.872 49.4949 19.312 49.3509 19.712C49.2149 20.112 49.0109 20.456 48.7389 20.744C48.4749 21.032 48.1469 21.26 47.7549 21.428C47.3709 21.588 46.9309 21.668 46.4349 21.668ZM46.4349 20.588C46.7389 20.588 47.0029 20.524 47.2269 20.396C47.4509 20.268 47.6349 20.1 47.7789 19.892C47.9229 19.684 48.0269 19.452 48.0909 19.196C48.1629 18.932 48.1989 18.664 48.1989 18.392C48.1989 18.128 48.1629 17.864 48.0909 17.6C48.0269 17.336 47.9229 17.104 47.7789 16.904C47.6349 16.696 47.4509 16.528 47.2269 16.4C47.0029 16.272 46.7389 16.208 46.4349 16.208C46.1309 16.208 45.8669 16.272 45.6429 16.4C45.4189 16.528 45.2349 16.696 45.0909 16.904C44.9469 17.104 44.8389 17.336 44.7669 17.6C44.7029 17.864 44.6709 18.128 44.6709 18.392C44.6709 18.664 44.7029 18.932 44.7669 19.196C44.8389 19.452 44.9469 19.684 45.0909 19.892C45.2349 20.1 45.4189 20.268 45.6429 20.396C45.8669 20.524 46.1309 20.588 46.4349 20.588ZM53.1482 21.668C52.6522 21.668 52.2082 21.588 51.8162 21.428C51.4322 21.26 51.1042 21.032 50.8322 20.744C50.5682 20.456 50.3642 20.112 50.2202 19.712C50.0842 19.312 50.0162 18.872 50.0162 18.392C50.0162 17.92 50.0842 17.484 50.2202 17.084C50.3642 16.684 50.5682 16.34 50.8322 16.052C51.1042 15.764 51.4322 15.54 51.8162 15.38C52.2082 15.212 52.6522 15.128 53.1482 15.128C53.6442 15.128 54.0842 15.212 54.4682 15.38C54.8602 15.54 55.1882 15.764 55.4522 16.052C55.7242 16.34 55.9282 16.684 56.0642 17.084C56.2082 17.484 56.2802 17.92 56.2802 18.392C56.2802 18.872 56.2082 19.312 56.0642 19.712C55.9282 20.112 55.7242 20.456 55.4522 20.744C55.1882 21.032 54.8602 21.26 54.4682 21.428C54.0842 21.588 53.6442 21.668 53.1482 21.668ZM53.1482 20.588C53.4522 20.588 53.7162 20.524 53.9402 20.396C54.1642 20.268 54.3482 20.1 54.4922 19.892C54.6362 19.684 54.7402 19.452 54.8042 19.196C54.8762 18.932 54.9122 18.664 54.9122 18.392C54.9122 18.128 54.8762 17.864 54.8042 17.6C54.7402 17.336 54.6362 17.104 54.4922 16.904C54.3482 16.696 54.1642 16.528 53.9402 16.4C53.7162 16.272 53.4522 16.208 53.1482 16.208C52.8442 16.208 52.5802 16.272 52.3562 16.4C52.1322 16.528 51.9482 16.696 51.8042 16.904C51.6602 17.104 51.5522 17.336 51.4802 17.6C51.4162 17.864 51.3842 18.128 51.3842 18.392C51.3842 18.664 51.4162 18.932 51.4802 19.196C51.5522 19.452 51.6602 19.684 51.8042 19.892C51.9482 20.1 52.1322 20.268 52.3562 20.396C52.5802 20.524 52.8442 20.588 53.1482 20.588ZM57.0535 12.932H58.4215V17.804L60.8935 15.296H62.5735L60.1975 17.576L62.8015 21.5H61.1335L59.2375 18.488L58.4215 19.28V21.5H57.0535V12.932ZM63.0988 12.932H64.4668V14.228H63.0988V12.932ZM63.0988 15.296H64.4668V21.5H63.0988V15.296ZM65.5573 15.296H66.8533V16.208L66.8773 16.232C67.0853 15.888 67.3573 15.62 67.6933 15.428C68.0293 15.228 68.4013 15.128 68.8093 15.128C69.4893 15.128 70.0253 15.304 70.4173 15.656C70.8093 16.008 71.0053 16.536 71.0053 17.24V21.5H69.6373V17.6C69.6213 17.112 69.5173 16.76 69.3253 16.544C69.1333 16.32 68.8333 16.208 68.4253 16.208C68.1933 16.208 67.9853 16.252 67.8013 16.34C67.6173 16.42 67.4613 16.536 67.3333 16.688C67.2053 16.832 67.1053 17.004 67.0333 17.204C66.9613 17.404 66.9253 17.616 66.9253 17.84V21.5H65.5573V15.296ZM77.784 21.176C77.784 22.112 77.52 22.808 76.992 23.264C76.472 23.728 75.72 23.96 74.736 23.96C74.424 23.96 74.108 23.928 73.788 23.864C73.476 23.8 73.188 23.692 72.924 23.54C72.668 23.388 72.452 23.188 72.276 22.94C72.1 22.692 71.996 22.388 71.964 22.028H73.332C73.372 22.22 73.44 22.376 73.536 22.496C73.632 22.616 73.744 22.708 73.872 22.772C74.008 22.844 74.156 22.888 74.316 22.904C74.476 22.928 74.644 22.94 74.82 22.94C75.372 22.94 75.776 22.804 76.032 22.532C76.288 22.26 76.416 21.868 76.416 21.356V20.408H76.392C76.2 20.752 75.936 21.02 75.6 21.212C75.272 21.404 74.916 21.5 74.532 21.5C74.036 21.5 73.612 21.416 73.26 21.248C72.916 21.072 72.628 20.836 72.396 20.54C72.172 20.236 72.008 19.888 71.904 19.496C71.8 19.104 71.748 18.684 71.748 18.236C71.748 17.82 71.812 17.424 71.94 17.048C72.068 16.672 72.252 16.344 72.492 16.064C72.732 15.776 73.024 15.548 73.368 15.38C73.72 15.212 74.116 15.128 74.556 15.128C74.948 15.128 75.308 15.212 75.636 15.38C75.964 15.54 76.216 15.796 76.392 16.148H76.416V15.296H77.784V21.176ZM74.748 20.42C75.052 20.42 75.308 20.36 75.516 20.24C75.732 20.112 75.904 19.948 76.032 19.748C76.168 19.54 76.264 19.308 76.32 19.052C76.384 18.788 76.416 18.524 76.416 18.26C76.416 17.996 76.384 17.74 76.32 17.492C76.256 17.244 76.156 17.024 76.02 16.832C75.892 16.64 75.72 16.488 75.504 16.376C75.296 16.264 75.044 16.208 74.748 16.208C74.444 16.208 74.188 16.272 73.98 16.4C73.772 16.528 73.604 16.696 73.476 16.904C73.348 17.104 73.256 17.336 73.2 17.6C73.144 17.856 73.116 18.112 73.116 18.368C73.116 18.624 73.148 18.876 73.212 19.124C73.276 19.364 73.372 19.58 73.5 19.772C73.636 19.964 73.804 20.12 74.004 20.24C74.212 20.36 74.46 20.42 74.748 20.42ZM82.7331 19.508C82.7731 19.908 82.9251 20.188 83.1891 20.348C83.4531 20.508 83.7691 20.588 84.1371 20.588C84.2651 20.588 84.4091 20.58 84.5691 20.564C84.7371 20.54 84.8931 20.5 85.0371 20.444C85.1811 20.388 85.2971 20.308 85.3851 20.204C85.4811 20.092 85.5251 19.948 85.5171 19.772C85.5091 19.596 85.4451 19.452 85.3251 19.34C85.2051 19.228 85.0491 19.14 84.8571 19.076C84.6731 19.004 84.4611 18.944 84.2211 18.896C83.9811 18.848 83.7371 18.796 83.4891 18.74C83.2331 18.684 82.9851 18.616 82.7451 18.536C82.5131 18.456 82.3011 18.348 82.1091 18.212C81.9251 18.076 81.7771 17.904 81.6651 17.696C81.5531 17.48 81.4971 17.216 81.4971 16.904C81.4971 16.568 81.5771 16.288 81.7371 16.064C81.9051 15.832 82.1131 15.648 82.3611 15.512C82.6171 15.368 82.8971 15.268 83.2011 15.212C83.5131 15.156 83.8091 15.128 84.0891 15.128C84.4091 15.128 84.7131 15.164 85.0011 15.236C85.2971 15.3 85.5611 15.408 85.7931 15.56C86.0331 15.712 86.2291 15.912 86.3811 16.16C86.5411 16.4 86.6411 16.692 86.6811 17.036H85.2531C85.1891 16.708 85.0371 16.488 84.7971 16.376C84.5651 16.264 84.2971 16.208 83.9931 16.208C83.8971 16.208 83.7811 16.216 83.6451 16.232C83.5171 16.248 83.3931 16.28 83.2731 16.328C83.1611 16.368 83.0651 16.432 82.9851 16.52C82.9051 16.6 82.8651 16.708 82.8651 16.844C82.8651 17.012 82.9211 17.148 83.0331 17.252C83.1531 17.356 83.3051 17.444 83.4891 17.516C83.6811 17.58 83.8971 17.636 84.1371 17.684C84.3771 17.732 84.6251 17.784 84.8811 17.84C85.1291 17.896 85.3731 17.964 85.6131 18.044C85.8531 18.124 86.0651 18.232 86.2491 18.368C86.4411 18.504 86.5931 18.676 86.7051 18.884C86.8251 19.092 86.8851 19.348 86.8851 19.652C86.8851 20.02 86.8011 20.332 86.6331 20.588C86.4651 20.844 86.2451 21.052 85.9731 21.212C85.7091 21.372 85.4131 21.488 85.0851 21.56C84.7571 21.632 84.4331 21.668 84.1131 21.668C83.7211 21.668 83.3571 21.624 83.0211 21.536C82.6931 21.448 82.4051 21.316 82.1571 21.14C81.9171 20.956 81.7251 20.732 81.5811 20.468C81.4451 20.196 81.3731 19.876 81.3651 19.508H82.7331ZM87.5597 12.932H88.9277V21.5H87.5597V12.932ZM92.8623 21.668C92.3663 21.668 91.9223 21.588 91.5303 21.428C91.1463 21.26 90.8183 21.032 90.5463 20.744C90.2823 20.456 90.0783 20.112 89.9343 19.712C89.7983 19.312 89.7303 18.872 89.7303 18.392C89.7303 17.92 89.7983 17.484 89.9343 17.084C90.0783 16.684 90.2823 16.34 90.5463 16.052C90.8183 15.764 91.1463 15.54 91.5303 15.38C91.9223 15.212 92.3663 15.128 92.8623 15.128C93.3583 15.128 93.7983 15.212 94.1823 15.38C94.5743 15.54 94.9023 15.764 95.1663 16.052C95.4383 16.34 95.6423 16.684 95.7783 17.084C95.9223 17.484 95.9943 17.92 95.9943 18.392C95.9943 18.872 95.9223 19.312 95.7783 19.712C95.6423 20.112 95.4383 20.456 95.1663 20.744C94.9023 21.032 94.5743 21.26 94.1823 21.428C93.7983 21.588 93.3583 21.668 92.8623 21.668ZM92.8623 20.588C93.1663 20.588 93.4303 20.524 93.6543 20.396C93.8783 20.268 94.0623 20.1 94.2063 19.892C94.3503 19.684 94.4543 19.452 94.5183 19.196C94.5903 18.932 94.6263 18.664 94.6263 18.392C94.6263 18.128 94.5903 17.864 94.5183 17.6C94.4543 17.336 94.3503 17.104 94.2063 16.904C94.0623 16.696 93.8783 16.528 93.6543 16.4C93.4303 16.272 93.1663 16.208 92.8623 16.208C92.5583 16.208 92.2943 16.272 92.0703 16.4C91.8463 16.528 91.6623 16.696 91.5183 16.904C91.3743 17.104 91.2663 17.336 91.1943 17.6C91.1303 17.864 91.0983 18.128 91.0983 18.392C91.0983 18.664 91.1303 18.932 91.1943 19.196C91.2663 19.452 91.3743 19.684 91.5183 19.892C91.6623 20.1 91.8463 20.268 92.0703 20.396C92.2943 20.524 92.5583 20.588 92.8623 20.588ZM96.1076 15.296H97.1396V13.436H98.5076V15.296H99.7436V16.316H98.5076V19.628C98.5076 19.772 98.5116 19.896 98.5196 20C98.5356 20.104 98.5636 20.192 98.6036 20.264C98.6516 20.336 98.7196 20.392 98.8076 20.432C98.8956 20.464 99.0156 20.48 99.1676 20.48C99.2636 20.48 99.3596 20.48 99.4556 20.48C99.5516 20.472 99.6476 20.456 99.7436 20.432V21.488C99.5916 21.504 99.4436 21.52 99.2996 21.536C99.1556 21.552 99.0076 21.56 98.8556 21.56C98.4956 21.56 98.2036 21.528 97.9796 21.464C97.7636 21.392 97.5916 21.292 97.4636 21.164C97.3436 21.028 97.2596 20.86 97.2116 20.66C97.1716 20.46 97.1476 20.232 97.1396 19.976V16.316H96.1076V15.296ZM102.656 15.296H103.676V14.78C103.676 14.388 103.724 14.072 103.82 13.832C103.916 13.584 104.044 13.396 104.204 13.268C104.364 13.132 104.544 13.044 104.744 13.004C104.952 12.956 105.168 12.932 105.392 12.932C105.832 12.932 106.152 12.96 106.352 13.016V14.084C106.264 14.06 106.168 14.044 106.064 14.036C105.968 14.02 105.852 14.012 105.716 14.012C105.532 14.012 105.372 14.056 105.236 14.144C105.108 14.232 105.044 14.404 105.044 14.66V15.296H106.208V16.316H105.044V21.5H103.676V16.316H102.656V15.296ZM109.497 21.668C109.001 21.668 108.557 21.588 108.165 21.428C107.781 21.26 107.453 21.032 107.181 20.744C106.917 20.456 106.713 20.112 106.569 19.712C106.433 19.312 106.365 18.872 106.365 18.392C106.365 17.92 106.433 17.484 106.569 17.084C106.713 16.684 106.917 16.34 107.181 16.052C107.453 15.764 107.781 15.54 108.165 15.38C108.557 15.212 109.001 15.128 109.497 15.128C109.993 15.128 110.433 15.212 110.817 15.38C111.209 15.54 111.537 15.764 111.801 16.052C112.073 16.34 112.277 16.684 112.413 17.084C112.557 17.484 112.629 17.92 112.629 18.392C112.629 18.872 112.557 19.312 112.413 19.712C112.277 20.112 112.073 20.456 111.801 20.744C111.537 21.032 111.209 21.26 110.817 21.428C110.433 21.588 109.993 21.668 109.497 21.668ZM109.497 20.588C109.801 20.588 110.065 20.524 110.289 20.396C110.513 20.268 110.697 20.1 110.841 19.892C110.985 19.684 111.089 19.452 111.153 19.196C111.225 18.932 111.261 18.664 111.261 18.392C111.261 18.128 111.225 17.864 111.153 17.6C111.089 17.336 110.985 17.104 110.841 16.904C110.697 16.696 110.513 16.528 110.289 16.4C110.065 16.272 109.801 16.208 109.497 16.208C109.193 16.208 108.929 16.272 108.705 16.4C108.481 16.528 108.297 16.696 108.153 16.904C108.009 17.104 107.901 17.336 107.829 17.6C107.765 17.864 107.733 18.128 107.733 18.392C107.733 18.664 107.765 18.932 107.829 19.196C107.901 19.452 108.009 19.684 108.153 19.892C108.297 20.1 108.481 20.268 108.705 20.396C108.929 20.524 109.193 20.588 109.497 20.588ZM113.366 15.296H114.65V16.496H114.674C114.714 16.328 114.79 16.164 114.902 16.004C115.022 15.844 115.162 15.7 115.322 15.572C115.49 15.436 115.674 15.328 115.874 15.248C116.074 15.168 116.278 15.128 116.486 15.128C116.646 15.128 116.754 15.132 116.81 15.14C116.874 15.148 116.938 15.156 117.002 15.164V16.484C116.906 16.468 116.806 16.456 116.702 16.448C116.606 16.432 116.51 16.424 116.414 16.424C116.182 16.424 115.962 16.472 115.754 16.568C115.554 16.656 115.378 16.792 115.226 16.976C115.074 17.152 114.954 17.372 114.866 17.636C114.778 17.9 114.734 18.204 114.734 18.548V21.5H113.366V15.296ZM124.385 17.852C124.369 17.636 124.321 17.428 124.241 17.228C124.169 17.028 124.065 16.856 123.929 16.712C123.801 16.56 123.641 16.44 123.449 16.352C123.265 16.256 123.057 16.208 122.825 16.208C122.585 16.208 122.365 16.252 122.165 16.34C121.973 16.42 121.805 16.536 121.661 16.688C121.525 16.832 121.413 17.004 121.325 17.204C121.245 17.404 121.201 17.62 121.193 17.852H124.385ZM121.193 18.752C121.193 18.992 121.225 19.224 121.289 19.448C121.361 19.672 121.465 19.868 121.601 20.036C121.737 20.204 121.909 20.34 122.117 20.444C122.325 20.54 122.573 20.588 122.861 20.588C123.261 20.588 123.581 20.504 123.821 20.336C124.069 20.16 124.253 19.9 124.373 19.556H125.669C125.597 19.892 125.473 20.192 125.297 20.456C125.121 20.72 124.909 20.944 124.661 21.128C124.413 21.304 124.133 21.436 123.821 21.524C123.517 21.62 123.197 21.668 122.861 21.668C122.373 21.668 121.941 21.588 121.565 21.428C121.189 21.268 120.869 21.044 120.605 20.756C120.349 20.468 120.153 20.124 120.017 19.724C119.889 19.324 119.825 18.884 119.825 18.404C119.825 17.964 119.893 17.548 120.029 17.156C120.173 16.756 120.373 16.408 120.629 16.112C120.893 15.808 121.209 15.568 121.577 15.392C121.945 15.216 122.361 15.128 122.825 15.128C123.313 15.128 123.749 15.232 124.133 15.44C124.525 15.64 124.849 15.908 125.105 16.244C125.361 16.58 125.545 16.968 125.657 17.408C125.777 17.84 125.809 18.288 125.753 18.752H121.193ZM131.589 20.12C131.589 20.288 131.609 20.408 131.649 20.48C131.697 20.552 131.785 20.588 131.913 20.588C131.953 20.588 132.001 20.588 132.057 20.588C132.113 20.588 132.177 20.58 132.249 20.564V21.512C132.201 21.528 132.137 21.544 132.057 21.56C131.985 21.584 131.909 21.604 131.829 21.62C131.749 21.636 131.669 21.648 131.589 21.656C131.509 21.664 131.441 21.668 131.385 21.668C131.105 21.668 130.873 21.612 130.689 21.5C130.505 21.388 130.385 21.192 130.329 20.912C130.057 21.176 129.721 21.368 129.321 21.488C128.929 21.608 128.549 21.668 128.181 21.668C127.901 21.668 127.633 21.628 127.377 21.548C127.121 21.476 126.893 21.368 126.693 21.224C126.501 21.072 126.345 20.884 126.225 20.66C126.113 20.428 126.057 20.16 126.057 19.856C126.057 19.472 126.125 19.16 126.261 18.92C126.405 18.68 126.589 18.492 126.813 18.356C127.045 18.22 127.301 18.124 127.581 18.068C127.869 18.004 128.157 17.956 128.445 17.924C128.693 17.876 128.929 17.844 129.153 17.828C129.377 17.804 129.573 17.768 129.741 17.72C129.917 17.672 130.053 17.6 130.149 17.504C130.253 17.4 130.305 17.248 130.305 17.048C130.305 16.872 130.261 16.728 130.173 16.616C130.093 16.504 129.989 16.42 129.861 16.364C129.741 16.3 129.605 16.26 129.453 16.244C129.301 16.22 129.157 16.208 129.021 16.208C128.637 16.208 128.321 16.288 128.073 16.448C127.825 16.608 127.685 16.856 127.653 17.192H126.285C126.309 16.792 126.405 16.46 126.573 16.196C126.741 15.932 126.953 15.72 127.209 15.56C127.473 15.4 127.769 15.288 128.097 15.224C128.425 15.16 128.761 15.128 129.105 15.128C129.409 15.128 129.709 15.16 130.005 15.224C130.301 15.288 130.565 15.392 130.797 15.536C131.037 15.68 131.229 15.868 131.373 16.1C131.517 16.324 131.589 16.6 131.589 16.928V20.12ZM130.221 18.392C130.013 18.528 129.757 18.612 129.453 18.644C129.149 18.668 128.845 18.708 128.541 18.764C128.397 18.788 128.257 18.824 128.121 18.872C127.985 18.912 127.865 18.972 127.761 19.052C127.657 19.124 127.573 19.224 127.509 19.352C127.453 19.472 127.425 19.62 127.425 19.796C127.425 19.948 127.469 20.076 127.557 20.18C127.645 20.284 127.749 20.368 127.869 20.432C127.997 20.488 128.133 20.528 128.277 20.552C128.429 20.576 128.565 20.588 128.685 20.588C128.837 20.588 129.001 20.568 129.177 20.528C129.353 20.488 129.517 20.42 129.669 20.324C129.829 20.228 129.961 20.108 130.065 19.964C130.169 19.812 130.221 19.628 130.221 19.412V18.392ZM136.848 17.372C136.792 16.988 136.636 16.7 136.38 16.508C136.132 16.308 135.816 16.208 135.432 16.208C135.256 16.208 135.068 16.24 134.868 16.304C134.668 16.36 134.484 16.472 134.316 16.64C134.148 16.8 134.008 17.028 133.896 17.324C133.784 17.612 133.728 17.992 133.728 18.464C133.728 18.72 133.756 18.976 133.812 19.232C133.876 19.488 133.972 19.716 134.1 19.916C134.236 20.116 134.408 20.28 134.616 20.408C134.824 20.528 135.076 20.588 135.372 20.588C135.772 20.588 136.1 20.464 136.356 20.216C136.62 19.968 136.784 19.62 136.848 19.172H138.216C138.088 19.98 137.78 20.6 137.292 21.032C136.812 21.456 136.172 21.668 135.372 21.668C134.884 21.668 134.452 21.588 134.076 21.428C133.708 21.26 133.396 21.036 133.14 20.756C132.884 20.468 132.688 20.128 132.552 19.736C132.424 19.344 132.36 18.92 132.36 18.464C132.36 18 132.424 17.564 132.552 17.156C132.68 16.748 132.872 16.396 133.128 16.1C133.384 15.796 133.7 15.56 134.076 15.392C134.46 15.216 134.908 15.128 135.42 15.128C135.78 15.128 136.12 15.176 136.44 15.272C136.768 15.36 137.056 15.496 137.304 15.68C137.56 15.864 137.768 16.096 137.928 16.376C138.088 16.656 138.184 16.988 138.216 17.372H136.848ZM138.928 12.932H140.296V16.112H140.32C140.488 15.832 140.736 15.6 141.064 15.416C141.4 15.224 141.772 15.128 142.18 15.128C142.86 15.128 143.396 15.304 143.788 15.656C144.18 16.008 144.376 16.536 144.376 17.24V21.5H143.008V17.6C142.992 17.112 142.888 16.76 142.696 16.544C142.504 16.32 142.204 16.208 141.796 16.208C141.564 16.208 141.356 16.252 141.172 16.34C140.988 16.42 140.832 16.536 140.704 16.688C140.576 16.832 140.476 17.004 140.404 17.204C140.332 17.404 140.296 17.616 140.296 17.84V21.5H138.928V12.932ZM154.203 21.5H152.907V20.66H152.883C152.699 21.02 152.431 21.28 152.079 21.44C151.727 21.592 151.355 21.668 150.963 21.668C150.475 21.668 150.047 21.584 149.679 21.416C149.319 21.24 149.019 21.004 148.779 20.708C148.539 20.412 148.359 20.064 148.239 19.664C148.119 19.256 148.059 18.82 148.059 18.356C148.059 17.796 148.135 17.312 148.287 16.904C148.439 16.496 148.639 16.16 148.887 15.896C149.143 15.632 149.431 15.44 149.751 15.32C150.079 15.192 150.411 15.128 150.747 15.128C150.939 15.128 151.135 15.148 151.335 15.188C151.535 15.22 151.727 15.276 151.911 15.356C152.095 15.436 152.263 15.54 152.415 15.668C152.575 15.788 152.707 15.932 152.811 16.1H152.835V12.932H154.203V21.5ZM149.427 18.464C149.427 18.728 149.459 18.988 149.523 19.244C149.595 19.5 149.699 19.728 149.835 19.928C149.979 20.128 150.159 20.288 150.375 20.408C150.591 20.528 150.847 20.588 151.143 20.588C151.447 20.588 151.707 20.524 151.923 20.396C152.147 20.268 152.327 20.1 152.463 19.892C152.607 19.684 152.711 19.452 152.775 19.196C152.847 18.932 152.883 18.664 152.883 18.392C152.883 17.704 152.727 17.168 152.415 16.784C152.111 16.4 151.695 16.208 151.167 16.208C150.847 16.208 150.575 16.276 150.351 16.412C150.135 16.54 149.955 16.712 149.811 16.928C149.675 17.136 149.575 17.376 149.511 17.648C149.455 17.912 149.427 18.184 149.427 18.464ZM160.491 20.12C160.491 20.288 160.511 20.408 160.551 20.48C160.599 20.552 160.687 20.588 160.815 20.588C160.855 20.588 160.903 20.588 160.959 20.588C161.015 20.588 161.079 20.58 161.151 20.564V21.512C161.103 21.528 161.039 21.544 160.959 21.56C160.887 21.584 160.811 21.604 160.731 21.62C160.651 21.636 160.571 21.648 160.491 21.656C160.411 21.664 160.343 21.668 160.287 21.668C160.007 21.668 159.775 21.612 159.591 21.5C159.407 21.388 159.287 21.192 159.231 20.912C158.959 21.176 158.623 21.368 158.223 21.488C157.831 21.608 157.451 21.668 157.083 21.668C156.803 21.668 156.535 21.628 156.279 21.548C156.023 21.476 155.795 21.368 155.595 21.224C155.403 21.072 155.247 20.884 155.127 20.66C155.015 20.428 154.959 20.16 154.959 19.856C154.959 19.472 155.027 19.16 155.163 18.92C155.307 18.68 155.491 18.492 155.715 18.356C155.947 18.22 156.203 18.124 156.483 18.068C156.771 18.004 157.059 17.956 157.347 17.924C157.595 17.876 157.831 17.844 158.055 17.828C158.279 17.804 158.475 17.768 158.643 17.72C158.819 17.672 158.955 17.6 159.051 17.504C159.155 17.4 159.207 17.248 159.207 17.048C159.207 16.872 159.163 16.728 159.075 16.616C158.995 16.504 158.891 16.42 158.763 16.364C158.643 16.3 158.507 16.26 158.355 16.244C158.203 16.22 158.059 16.208 157.923 16.208C157.539 16.208 157.223 16.288 156.975 16.448C156.727 16.608 156.587 16.856 156.555 17.192H155.187C155.211 16.792 155.307 16.46 155.475 16.196C155.643 15.932 155.855 15.72 156.111 15.56C156.375 15.4 156.671 15.288 156.999 15.224C157.327 15.16 157.663 15.128 158.007 15.128C158.311 15.128 158.611 15.16 158.907 15.224C159.203 15.288 159.467 15.392 159.699 15.536C159.939 15.68 160.131 15.868 160.275 16.1C160.419 16.324 160.491 16.6 160.491 16.928V20.12ZM159.123 18.392C158.915 18.528 158.659 18.612 158.355 18.644C158.051 18.668 157.747 18.708 157.443 18.764C157.299 18.788 157.159 18.824 157.023 18.872C156.887 18.912 156.767 18.972 156.663 19.052C156.559 19.124 156.475 19.224 156.411 19.352C156.355 19.472 156.327 19.62 156.327 19.796C156.327 19.948 156.371 20.076 156.459 20.18C156.547 20.284 156.651 20.368 156.771 20.432C156.899 20.488 157.035 20.528 157.179 20.552C157.331 20.576 157.467 20.588 157.587 20.588C157.739 20.588 157.903 20.568 158.079 20.528C158.255 20.488 158.419 20.42 158.571 20.324C158.731 20.228 158.863 20.108 158.967 19.964C159.071 19.812 159.123 19.628 159.123 19.412V18.392ZM160.939 15.296H161.971V13.436H163.339V15.296H164.575V16.316H163.339V19.628C163.339 19.772 163.343 19.896 163.351 20C163.367 20.104 163.395 20.192 163.435 20.264C163.483 20.336 163.551 20.392 163.639 20.432C163.727 20.464 163.847 20.48 163.999 20.48C164.095 20.48 164.191 20.48 164.287 20.48C164.383 20.472 164.479 20.456 164.575 20.432V21.488C164.423 21.504 164.275 21.52 164.131 21.536C163.987 21.552 163.839 21.56 163.687 21.56C163.327 21.56 163.035 21.528 162.811 21.464C162.595 21.392 162.423 21.292 162.295 21.164C162.175 21.028 162.091 20.86 162.043 20.66C162.003 20.46 161.979 20.232 161.971 19.976V16.316H160.939V15.296ZM169.419 17.852C169.403 17.636 169.355 17.428 169.275 17.228C169.203 17.028 169.099 16.856 168.963 16.712C168.835 16.56 168.675 16.44 168.483 16.352C168.299 16.256 168.091 16.208 167.859 16.208C167.619 16.208 167.399 16.252 167.199 16.34C167.007 16.42 166.839 16.536 166.695 16.688C166.559 16.832 166.447 17.004 166.359 17.204C166.279 17.404 166.235 17.62 166.227 17.852H169.419ZM166.227 18.752C166.227 18.992 166.259 19.224 166.323 19.448C166.395 19.672 166.499 19.868 166.635 20.036C166.771 20.204 166.943 20.34 167.151 20.444C167.359 20.54 167.607 20.588 167.895 20.588C168.295 20.588 168.615 20.504 168.855 20.336C169.103 20.16 169.287 19.9 169.407 19.556H170.703C170.631 19.892 170.507 20.192 170.331 20.456C170.155 20.72 169.943 20.944 169.695 21.128C169.447 21.304 169.167 21.436 168.855 21.524C168.551 21.62 168.231 21.668 167.895 21.668C167.407 21.668 166.975 21.588 166.599 21.428C166.223 21.268 165.903 21.044 165.639 20.756C165.383 20.468 165.187 20.124 165.051 19.724C164.923 19.324 164.859 18.884 164.859 18.404C164.859 17.964 164.927 17.548 165.063 17.156C165.207 16.756 165.407 16.408 165.663 16.112C165.927 15.808 166.243 15.568 166.611 15.392C166.979 15.216 167.395 15.128 167.859 15.128C168.347 15.128 168.783 15.232 169.167 15.44C169.559 15.64 169.883 15.908 170.139 16.244C170.395 16.58 170.579 16.968 170.691 17.408C170.811 17.84 170.843 18.288 170.787 18.752H166.227ZM174.511 20H176.119V21.5H174.511V20ZM174.571 12.932H176.071V15.404L175.675 19.112H174.967L174.571 15.404V12.932Z" fill="white"/>
</svg>
