<svg width="20" height="20" viewBox="0 0 20 20" fill="none" xmlns="http://www.w3.org/2000/svg">
<rect width="20" height="20" rx="8" fill="#C34C2F"/>
<path fill-rule="evenodd" clip-rule="evenodd" d="M12 5.75H13C13.6904 5.75 14.25 6.30964 14.25 7V13C14.25 13.6904 13.6904 14.25 13 14.25H7C6.30964 14.25 5.75 13.6904 5.75 13V7C5.75 6.30964 6.30964 5.75 7 5.75H8V9.69098C8 10.0627 8.39116 10.3044 8.72361 10.1382L9.77639 9.6118C9.91716 9.54142 10.0828 9.54142 10.2236 9.6118L11.2764 10.1382C11.6088 10.3044 12 10.0627 12 9.69098V5.75ZM11.25 5.75H8.75V9.28647L9.44098 8.94098C9.79289 8.76503 10.2071 8.76503 10.559 8.94098L11.25 9.28647V5.75ZM12 5H13C14.1046 5 15 5.89543 15 7V13C15 14.1046 14.1046 15 13 15H7C5.89543 15 5 14.1046 5 13V7C5 5.89543 5.89543 5 7 5H8H8.75H11.25H12Z" fill="white"/>
</svg>
