<svg width="24" height="24" viewBox="0 0 24 24" fill="none" xmlns="http://www.w3.org/2000/svg">
<path fill-rule="evenodd" clip-rule="evenodd" d="M16.077 0.493607C15.921 0.403607 15.7485 0.360107 15.5775 0.360107C15.3135 0.360107 15.0525 0.465107 14.859 0.664607L13.242 2.33711C12.834 2.28461 12.4215 2.25011 12 2.25011C11.577 2.25011 11.1645 2.28461 10.7565 2.33711L9.1395 0.664607C8.946 0.465107 8.685 0.360107 8.421 0.360107C8.25 0.360107 8.0775 0.403607 7.9215 0.493607L4.077 2.71361C3.6795 2.94311 3.489 3.41261 3.6165 3.85361L4.257 6.09311C3.753 6.75161 3.327 7.47011 3.003 8.24561L0.756 8.80661C0.312 8.91761 0 9.31811 0 9.77711V14.2156C0 14.6746 0.312 15.0736 0.756 15.1846L3.003 15.7471C3.327 16.5226 3.753 17.2411 4.257 17.8981L3.6165 20.1376C3.489 20.5786 3.6795 21.0496 4.077 21.2791L7.9215 23.4976C8.0775 23.5876 8.25 23.6326 8.421 23.6326C8.685 23.6326 8.946 23.5276 9.1395 23.3266L10.7565 21.6541C11.1645 21.7066 11.577 21.7426 12 21.7426C12.4215 21.7426 12.834 21.7066 13.242 21.6541L14.859 23.3266C15.0525 23.5276 15.3135 23.6326 15.5775 23.6326C15.7485 23.6326 15.921 23.5876 16.077 23.4976L19.9215 21.2791C20.319 21.0496 20.5095 20.5786 20.382 20.1376L19.7415 17.8981C20.2455 17.2411 20.6715 16.5226 20.9955 15.7471L23.241 15.1846C23.6865 15.0736 24 14.6746 24 14.2156V9.77711C24 9.31811 23.6865 8.91761 23.241 8.80661L20.9955 8.24561C20.6715 7.47011 20.244 6.75161 19.7415 6.09311L20.382 3.85361C20.5095 3.41261 20.319 2.94311 19.9215 2.71361L16.077 0.493607ZM14.3205 3.37961L15.666 1.98761L18.8325 3.81761L18.3 5.68061L18.093 6.40511L18.549 7.00361C18.9915 7.58261 19.3485 8.19461 19.611 8.82311L19.9005 9.51761L20.631 9.70061L22.5 10.1671V13.8241L20.631 14.2921L19.9005 14.4751L19.611 15.1696C19.3485 15.7981 18.9915 16.4101 18.5505 16.9876L18.093 17.5876L18.3 18.3106L18.8325 20.1751L15.666 22.0036L14.3205 20.6116L13.797 20.0716L13.0515 20.1661C12.6465 20.2186 12.312 20.2426 12 20.2426C11.6865 20.2426 11.352 20.2186 10.947 20.1661L10.2015 20.0716L9.678 20.6116L8.3325 22.0036L5.166 20.1751L5.6985 18.3106L5.9055 17.5876L5.448 16.9876C5.007 16.4101 4.65 15.7981 4.3875 15.1681L4.0965 14.4736L3.366 14.2921L1.5 13.8256V10.1671L3.3675 9.70061L4.098 9.51761L4.3875 8.82311C4.65 8.19461 5.007 7.58261 5.448 7.00361L5.9055 6.40511L5.6985 5.68061L5.166 3.81761L8.3325 1.98911L9.6795 3.37961L10.2015 3.92111L10.947 3.82511C11.352 3.77411 11.6865 3.75011 12 3.75011C12.312 3.75011 12.6465 3.77411 13.0515 3.82511L13.797 3.91961L14.3205 3.37961ZM11.999 15.7461C9.93045 15.7461 8.24895 14.0631 8.24895 11.9961C8.24895 9.92906 9.93045 8.24606 11.999 8.24606C14.0674 8.24606 15.749 9.92906 15.749 11.9961C15.749 14.0631 14.0674 15.7461 11.999 15.7461ZM9.74895 11.9961C9.74895 10.7556 10.7584 9.74606 11.999 9.74606C13.2395 9.74606 14.249 10.7556 14.249 11.9961C14.249 13.2366 13.2395 14.2461 11.999 14.2461C10.7584 14.2461 9.74895 13.2366 9.74895 11.9961Z" fill="#111111"/>
</svg>
