<svg width="48" height="42" viewBox="0 0 48 42" fill="none" xmlns="http://www.w3.org/2000/svg">
<path fill-rule="evenodd" clip-rule="evenodd" d="M45.1317 42C47.3367 42 48.7136 39.6306 47.6127 37.7374L26.481 1.4221C25.377 -0.474034 22.623 -0.474034 21.519 1.4221L0.387341 37.7374C-0.713643 39.6306 0.663337 42 2.86831 42H45.1317ZM3.12354 38.9997L23.9999 3.12305L44.8764 38.9997H3.12354ZM24 33C23.1723 33 22.5 32.3293 22.5 31.5C22.5 30.6723 23.1723 30 24 30C24.8277 30 25.5 30.6723 25.5 31.5C25.5 32.3293 24.8277 33 24 33ZM22.5 16.4955V25.5045C22.5 26.3304 23.1658 27 24 27C24.8284 27 25.5 26.3204 25.5 25.5045V16.4955C25.5 15.6696 24.8342 15 24 15C23.1716 15 22.5 15.6796 22.5 16.4955Z" fill="#474747"/>
</svg>
